M48
; DRILL file {KiCad 9.0.7} date 2026-06-16T10:30:59+0300
; FORMAT={-:-/ absolute / metric / decimal}
; #@! TF.CreationDate,2026-06-16T10:30:59+03:00
; #@! TF.GenerationSoftware,Kicad,Pcbnew,9.0.7
; #@! TF.FileFunction,MixedPlating,1,2
FMAT,2
METRIC
; #@! TA.AperFunction,Plated,PTH,ViaDrill
T1C0.300
; #@! TA.AperFunction,Plated,PTH,ComponentDrill
T2C0.800
; #@! TA.AperFunction,Plated,PTH,ComponentDrill
T3C0.900
; #@! TA.AperFunction,Plated,PTH,ComponentDrill
T4C1.000
; #@! TA.AperFunction,Plated,PTH,ComponentDrill
T5C1.100
; #@! TA.AperFunction,Plated,PTH,ComponentDrill
T6C1.300
; #@! TA.AperFunction,Plated,PTH,ComponentDrill
T7C3.500
%
G90
G05
T1
X69.0Y-125.75
X69.0Y-129.0
X70.25Y-123.0
X72.0Y-83.0
X72.0Y-85.0
X72.0Y-87.0
X72.0Y-89.5
X72.0Y-92.0
X72.25Y-121.0
X81.0Y-125.75
X81.75Y-126.75
X93.21Y-100.75
X93.21Y-102.46
X97.5Y-126.25
X98.25Y-125.25
X98.75Y-93.5
X100.75Y-106.25
X100.75Y-108.75
X106.25Y-101.0
X106.5Y-103.25
X106.5Y-110.25
X108.75Y-92.5
X109.75Y-98.75
X110.0Y-81.75
X111.25Y-95.0
X112.25Y-114.5
X112.25Y-121.5
X113.0Y-112.5
X114.0Y-118.25
X114.75Y-96.5
X114.75Y-124.75
X114.75Y-125.5
X116.0Y-88.75
X118.5Y-88.75
X119.0Y-114.25
X120.5Y-90.75
X126.5Y-113.75
X127.35Y-110.5
X128.0Y-103.75
X129.35Y-115.319
X130.0Y-125.0
X130.07Y-125.697
X133.0Y-109.5
X133.5Y-104.0
X133.75Y-112.25
X135.0Y-107.5
X135.0Y-112.0
X139.0Y-102.0
X139.25Y-117.0
X143.0Y-122.75
X145.0Y-105.25
X148.5Y-96.75
X148.5Y-111.75
X150.0Y-68.75
T2
X78.46Y-94.98
X78.46Y-97.48
X82.46Y-100.525
X82.46Y-103.025
X89.21Y-102.048
X89.21Y-104.548
T3
X94.71Y-82.73
X94.71Y-85.27
T4
X125.25Y-98.5
X127.79Y-98.5
X130.33Y-98.5
X132.87Y-98.5
T5
X83.96Y-95.48
X86.5Y-95.48
X89.04Y-95.48
T6
X69.0Y-98.205
X69.0Y-103.285
X85.17Y-139.0
X90.25Y-139.0
X101.635Y-139.077
X106.715Y-139.077
X118.385Y-139.077
X123.465Y-139.077
X134.885Y-138.827
X139.965Y-138.827
X156.75Y-59.46
X156.75Y-64.54
X156.75Y-69.62
X156.75Y-74.7
X156.75Y-81.67
X156.75Y-86.75
X156.75Y-91.83
X156.75Y-96.91
X156.75Y-104.13
X156.75Y-109.21
X156.75Y-114.29
X156.75Y-119.37
X156.75Y-126.21
X156.75Y-131.29
X156.75Y-136.37
X156.75Y-141.45
T7
X86.5Y-78.82
M30
