G04 #@! TF.GenerationSoftware,KiCad,Pcbnew,9.0.7*
G04 #@! TF.CreationDate,2026-06-16T10:29:00+03:00*
G04 #@! TF.ProjectId,access_control,61636365-7373-45f6-936f-6e74726f6c2e,rev?*
G04 #@! TF.SameCoordinates,Original*
G04 #@! TF.FileFunction,Soldermask,Bot*
G04 #@! TF.FilePolarity,Negative*
%FSLAX46Y46*%
G04 Gerber Fmt 4.6, Leading zero omitted, Abs format (unit mm)*
G04 Created by KiCad (PCBNEW 9.0.7) date 2026-06-16 10:29:00*
%MOMM*%
%LPD*%
G01*
G04 APERTURE LIST*
G04 Aperture macros list*
%AMRoundRect*
0 Rectangle with rounded corners*
0 $1 Rounding radius*
0 $2 $3 $4 $5 $6 $7 $8 $9 X,Y pos of 4 corners*
0 Add a 4 corners polygon primitive as box body*
4,1,4,$2,$3,$4,$5,$6,$7,$8,$9,$2,$3,0*
0 Add four circle primitives for the rounded corners*
1,1,$1+$1,$2,$3*
1,1,$1+$1,$4,$5*
1,1,$1+$1,$6,$7*
1,1,$1+$1,$8,$9*
0 Add four rect primitives between the rounded corners*
20,1,$1+$1,$2,$3,$4,$5,0*
20,1,$1+$1,$4,$5,$6,$7,0*
20,1,$1+$1,$6,$7,$8,$9,0*
20,1,$1+$1,$8,$9,$2,$3,0*%
G04 Aperture macros list end*
%ADD10R,1.700000X1.700000*%
%ADD11C,1.700000*%
%ADD12C,7.000000*%
%ADD13R,1.905000X2.000000*%
%ADD14O,1.905000X2.000000*%
%ADD15C,1.600000*%
%ADD16RoundRect,0.250000X-0.550000X0.550000X-0.550000X-0.550000X0.550000X-0.550000X0.550000X0.550000X0*%
%ADD17C,2.600000*%
%ADD18RoundRect,0.250000X-1.050000X1.050000X-1.050000X-1.050000X1.050000X-1.050000X1.050000X1.050000X0*%
%ADD19C,1.800000*%
%ADD20R,1.800000X1.800000*%
%ADD21RoundRect,0.250000X0.550000X-0.550000X0.550000X0.550000X-0.550000X0.550000X-0.550000X-0.550000X0*%
%ADD22RoundRect,0.250000X1.050000X-1.050000X1.050000X1.050000X-1.050000X1.050000X-1.050000X-1.050000X0*%
%ADD23RoundRect,0.250000X-1.050000X-1.050000X1.050000X-1.050000X1.050000X1.050000X-1.050000X1.050000X0*%
G04 APERTURE END LIST*
D10*
G04 #@! TO.C,J1*
X132870000Y-98500000D03*
D11*
X130330000Y-98500000D03*
X127790000Y-98500000D03*
X125250000Y-98500000D03*
G04 #@! TD*
D12*
G04 #@! TO.C,U5*
X86500000Y-78820000D03*
D13*
X83960000Y-95480000D03*
D14*
X86500000Y-95480000D03*
X89040000Y-95480000D03*
G04 #@! TD*
D15*
G04 #@! TO.C,C29*
X89210000Y-104547621D03*
D16*
X89210000Y-102047621D03*
G04 #@! TD*
D17*
G04 #@! TO.C,J4*
X69000000Y-103285000D03*
D18*
X69000000Y-98205000D03*
G04 #@! TD*
D19*
G04 #@! TO.C,D5*
X94710000Y-85270000D03*
D20*
X94710000Y-82730000D03*
G04 #@! TD*
D15*
G04 #@! TO.C,C26*
X78460000Y-94980000D03*
D21*
X78460000Y-97480000D03*
G04 #@! TD*
D15*
G04 #@! TO.C,C27*
X82460000Y-103024888D03*
D16*
X82460000Y-100524888D03*
G04 #@! TD*
D22*
G04 #@! TO.C,J5*
X156750000Y-119370000D03*
D17*
X156750000Y-114290000D03*
X156750000Y-109210000D03*
X156750000Y-104130000D03*
G04 #@! TD*
D22*
G04 #@! TO.C,J3*
X156750000Y-96910000D03*
D17*
X156750000Y-91830000D03*
X156750000Y-86750000D03*
X156750000Y-81670000D03*
G04 #@! TD*
D23*
G04 #@! TO.C,J9*
X118385000Y-139077500D03*
D17*
X123465000Y-139077500D03*
G04 #@! TD*
D22*
G04 #@! TO.C,J2*
X156750000Y-74700000D03*
D17*
X156750000Y-69620000D03*
X156750000Y-64540000D03*
X156750000Y-59460000D03*
G04 #@! TD*
D23*
G04 #@! TO.C,J8*
X101635000Y-139077500D03*
D17*
X106715000Y-139077500D03*
G04 #@! TD*
D23*
G04 #@! TO.C,J7*
X85170000Y-139000000D03*
D17*
X90250000Y-139000000D03*
G04 #@! TD*
D23*
G04 #@! TO.C,J10*
X134885000Y-138827500D03*
D17*
X139965000Y-138827500D03*
G04 #@! TD*
D22*
G04 #@! TO.C,J6*
X156750000Y-141450000D03*
D17*
X156750000Y-136370000D03*
X156750000Y-131290000D03*
X156750000Y-126210000D03*
G04 #@! TD*
M02*
