G04 #@! TF.GenerationSoftware,KiCad,Pcbnew,9.0.7*
G04 #@! TF.CreationDate,2026-06-16T10:29:00+03:00*
G04 #@! TF.ProjectId,access_control,61636365-7373-45f6-936f-6e74726f6c2e,rev?*
G04 #@! TF.SameCoordinates,Original*
G04 #@! TF.FileFunction,Paste,Top*
G04 #@! TF.FilePolarity,Positive*
%FSLAX46Y46*%
G04 Gerber Fmt 4.6, Leading zero omitted, Abs format (unit mm)*
G04 Created by KiCad (PCBNEW 9.0.7) date 2026-06-16 10:29:00*
%MOMM*%
%LPD*%
G01*
G04 APERTURE LIST*
G04 Aperture macros list*
%AMRoundRect*
0 Rectangle with rounded corners*
0 $1 Rounding radius*
0 $2 $3 $4 $5 $6 $7 $8 $9 X,Y pos of 4 corners*
0 Add a 4 corners polygon primitive as box body*
4,1,4,$2,$3,$4,$5,$6,$7,$8,$9,$2,$3,0*
0 Add four circle primitives for the rounded corners*
1,1,$1+$1,$2,$3*
1,1,$1+$1,$4,$5*
1,1,$1+$1,$6,$7*
1,1,$1+$1,$8,$9*
0 Add four rect primitives between the rounded corners*
20,1,$1+$1,$2,$3,$4,$5,0*
20,1,$1+$1,$4,$5,$6,$7,0*
20,1,$1+$1,$6,$7,$8,$9,0*
20,1,$1+$1,$8,$9,$2,$3,0*%
%AMOutline4P*
0 Free polygon, 4 corners , with rotation*
0 The origin of the aperture is its center*
0 number of corners: always 4*
0 $1 to $8 corner X, Y*
0 $9 Rotation angle, in degrees counterclockwise*
0 create outline with 4 corners*
4,1,4,$1,$2,$3,$4,$5,$6,$7,$8,$1,$2,$9*%
G04 Aperture macros list end*
%ADD10RoundRect,0.250000X0.475000X-0.337500X0.475000X0.337500X-0.475000X0.337500X-0.475000X-0.337500X0*%
%ADD11RoundRect,0.150000X-0.150000X0.587500X-0.150000X-0.587500X0.150000X-0.587500X0.150000X0.587500X0*%
%ADD12RoundRect,0.150000X0.825000X0.150000X-0.825000X0.150000X-0.825000X-0.150000X0.825000X-0.150000X0*%
%ADD13RoundRect,0.250000X-0.475000X0.337500X-0.475000X-0.337500X0.475000X-0.337500X0.475000X0.337500X0*%
%ADD14RoundRect,0.250000X0.337500X0.475000X-0.337500X0.475000X-0.337500X-0.475000X0.337500X-0.475000X0*%
%ADD15Outline4P,-1.800000X-1.150000X1.800000X-0.550000X1.800000X0.550000X-1.800000X1.150000X180.000000*%
%ADD16Outline4P,-1.800000X-1.150000X1.800000X-0.550000X1.800000X0.550000X-1.800000X1.150000X0.000000*%
%ADD17Outline4P,-1.800000X-1.150000X1.800000X-0.550000X1.800000X0.550000X-1.800000X1.150000X90.000000*%
%ADD18Outline4P,-1.800000X-1.150000X1.800000X-0.550000X1.800000X0.550000X-1.800000X1.150000X270.000000*%
%ADD19RoundRect,0.250000X-0.337500X-0.475000X0.337500X-0.475000X0.337500X0.475000X-0.337500X0.475000X0*%
%ADD20RoundRect,0.250000X0.450000X-0.350000X0.450000X0.350000X-0.450000X0.350000X-0.450000X-0.350000X0*%
%ADD21RoundRect,0.150000X-0.150000X0.875000X-0.150000X-0.875000X0.150000X-0.875000X0.150000X0.875000X0*%
%ADD22RoundRect,0.250000X-0.450000X0.350000X-0.450000X-0.350000X0.450000X-0.350000X0.450000X0.350000X0*%
%ADD23RoundRect,0.250000X-0.350000X0.275000X-0.350000X-0.275000X0.350000X-0.275000X0.350000X0.275000X0*%
%ADD24RoundRect,0.075000X-0.700000X-0.075000X0.700000X-0.075000X0.700000X0.075000X-0.700000X0.075000X0*%
%ADD25RoundRect,0.075000X-0.075000X-0.700000X0.075000X-0.700000X0.075000X0.700000X-0.075000X0.700000X0*%
%ADD26RoundRect,0.250000X-0.350000X-0.450000X0.350000X-0.450000X0.350000X0.450000X-0.350000X0.450000X0*%
%ADD27R,2.600000X3.600000*%
%ADD28RoundRect,0.250000X-0.650000X0.800000X-0.650000X-0.800000X0.650000X-0.800000X0.650000X0.800000X0*%
%ADD29RoundRect,0.250000X0.400000X-0.525000X0.400000X0.525000X-0.400000X0.525000X-0.400000X-0.525000X0*%
%ADD30RoundRect,0.250000X0.350000X0.450000X-0.350000X0.450000X-0.350000X-0.450000X0.350000X-0.450000X0*%
G04 APERTURE END LIST*
D10*
G04 #@! TO.C,C16*
X109250000Y-94212500D03*
X109250000Y-96287500D03*
G04 #@! TD*
D11*
G04 #@! TO.C,Q4*
X131950000Y-127062500D03*
X130050000Y-127062500D03*
X131000000Y-128937500D03*
G04 #@! TD*
G04 #@! TO.C,Q3*
X116700000Y-127312500D03*
X114800000Y-127312500D03*
X115750000Y-129187500D03*
G04 #@! TD*
G04 #@! TO.C,Q2*
X100200000Y-127812500D03*
X98300000Y-127812500D03*
X99250000Y-129687500D03*
G04 #@! TD*
G04 #@! TO.C,Q1*
X83950000Y-128812500D03*
X82050000Y-128812500D03*
X83000000Y-130687500D03*
G04 #@! TD*
D12*
G04 #@! TO.C,U4*
X137525000Y-118195000D03*
X137525000Y-116925000D03*
X137525000Y-115655000D03*
X137525000Y-114385000D03*
X137525000Y-113115000D03*
X137525000Y-111845000D03*
X137525000Y-110575000D03*
X137525000Y-109305000D03*
X142475000Y-109305000D03*
X142475000Y-110575000D03*
X142475000Y-111845000D03*
X142475000Y-113115000D03*
X142475000Y-114385000D03*
X142475000Y-115655000D03*
X142475000Y-116925000D03*
X142475000Y-118195000D03*
G04 #@! TD*
D13*
G04 #@! TO.C,C23*
X141500000Y-122537500D03*
X141500000Y-120462500D03*
G04 #@! TD*
D14*
G04 #@! TO.C,C12*
X113962500Y-114000000D03*
X116037500Y-114000000D03*
G04 #@! TD*
D10*
G04 #@! TO.C,C11*
X109750000Y-106962500D03*
X109750000Y-109037500D03*
G04 #@! TD*
D15*
G04 #@! TO.C,D6*
X90060000Y-109790000D03*
D16*
X84260000Y-109790000D03*
G04 #@! TD*
D17*
G04 #@! TO.C,D7*
X77460000Y-111730000D03*
D18*
X77460000Y-105930000D03*
G04 #@! TD*
D19*
G04 #@! TO.C,C25*
X93210000Y-98230000D03*
X91135000Y-98230000D03*
G04 #@! TD*
G04 #@! TO.C,C28*
X87747500Y-98480000D03*
X85672500Y-98480000D03*
G04 #@! TD*
D20*
G04 #@! TO.C,R9*
X94000000Y-89250000D03*
X94000000Y-91250000D03*
G04 #@! TD*
D14*
G04 #@! TO.C,C17*
X104537500Y-108750000D03*
X102462500Y-108750000D03*
G04 #@! TD*
D21*
G04 #@! TO.C,U2*
X117750000Y-76850000D03*
X116480000Y-76850000D03*
X115210000Y-76850000D03*
X113940000Y-76850000D03*
X112670000Y-76850000D03*
X111400000Y-76850000D03*
X110130000Y-76850000D03*
X108860000Y-76850000D03*
X108860000Y-86150000D03*
X110130000Y-86150000D03*
X111400000Y-86150000D03*
X112670000Y-86150000D03*
X113940000Y-86150000D03*
X115210000Y-86150000D03*
X116480000Y-86150000D03*
X117750000Y-86150000D03*
G04 #@! TD*
D22*
G04 #@! TO.C,R12*
X131500000Y-119000000D03*
X131500000Y-121000000D03*
G04 #@! TD*
D14*
G04 #@! TO.C,C2*
X147037500Y-99000000D03*
X144962500Y-99000000D03*
G04 #@! TD*
D19*
G04 #@! TO.C,C4*
X144925000Y-96750000D03*
X147000000Y-96750000D03*
G04 #@! TD*
D14*
G04 #@! TO.C,C20*
X147037500Y-116250000D03*
X144962500Y-116250000D03*
G04 #@! TD*
D20*
G04 #@! TO.C,R2*
X119000000Y-92750000D03*
X119000000Y-90750000D03*
G04 #@! TD*
D15*
G04 #@! TO.C,D2*
X142830000Y-128905000D03*
D16*
X137030000Y-128905000D03*
G04 #@! TD*
D20*
G04 #@! TO.C,R3*
X115500000Y-92750000D03*
X115500000Y-90750000D03*
G04 #@! TD*
D12*
G04 #@! TO.C,U3*
X142475000Y-103195000D03*
X142475000Y-101925000D03*
X142475000Y-100655000D03*
X142475000Y-99385000D03*
X142475000Y-98115000D03*
X142475000Y-96845000D03*
X142475000Y-95575000D03*
X142475000Y-94305000D03*
X137525000Y-94305000D03*
X137525000Y-95575000D03*
X137525000Y-96845000D03*
X137525000Y-98115000D03*
X137525000Y-99385000D03*
X137525000Y-100655000D03*
X137525000Y-101925000D03*
X137525000Y-103195000D03*
G04 #@! TD*
D23*
G04 #@! TO.C,FB1*
X110750000Y-112350000D03*
X110750000Y-114650000D03*
G04 #@! TD*
D19*
G04 #@! TO.C,C18*
X102462500Y-101000000D03*
X104537500Y-101000000D03*
G04 #@! TD*
D24*
G04 #@! TO.C,U1*
X112325000Y-102250000D03*
X112325000Y-102750000D03*
X112325000Y-103250000D03*
X112325000Y-103750000D03*
X112325000Y-104250000D03*
X112325000Y-104750000D03*
X112325000Y-105250000D03*
X112325000Y-105750000D03*
X112325000Y-106250000D03*
X112325000Y-106750000D03*
X112325000Y-107250000D03*
X112325000Y-107750000D03*
X112325000Y-108250000D03*
X112325000Y-108750000D03*
X112325000Y-109250000D03*
X112325000Y-109750000D03*
D25*
X114250000Y-111675000D03*
X114750000Y-111675000D03*
X115250000Y-111675000D03*
X115750000Y-111675000D03*
X116250000Y-111675000D03*
X116750000Y-111675000D03*
X117250000Y-111675000D03*
X117750000Y-111675000D03*
X118250000Y-111675000D03*
X118750000Y-111675000D03*
X119250000Y-111675000D03*
X119750000Y-111675000D03*
X120250000Y-111675000D03*
X120750000Y-111675000D03*
X121250000Y-111675000D03*
X121750000Y-111675000D03*
D24*
X123675000Y-109750000D03*
X123675000Y-109250000D03*
X123675000Y-108750000D03*
X123675000Y-108250000D03*
X123675000Y-107750000D03*
X123675000Y-107250000D03*
X123675000Y-106750000D03*
X123675000Y-106250000D03*
X123675000Y-105750000D03*
X123675000Y-105250000D03*
X123675000Y-104750000D03*
X123675000Y-104250000D03*
X123675000Y-103750000D03*
X123675000Y-103250000D03*
X123675000Y-102750000D03*
X123675000Y-102250000D03*
D25*
X121750000Y-100325000D03*
X121250000Y-100325000D03*
X120750000Y-100325000D03*
X120250000Y-100325000D03*
X119750000Y-100325000D03*
X119250000Y-100325000D03*
X118750000Y-100325000D03*
X118250000Y-100325000D03*
X117750000Y-100325000D03*
X117250000Y-100325000D03*
X116750000Y-100325000D03*
X116250000Y-100325000D03*
X115750000Y-100325000D03*
X115250000Y-100325000D03*
X114750000Y-100325000D03*
X114250000Y-100325000D03*
G04 #@! TD*
D26*
G04 #@! TO.C,R4*
X80250000Y-123750000D03*
X82250000Y-123750000D03*
G04 #@! TD*
D27*
G04 #@! TO.C,BT1*
X119500000Y-72250000D03*
X148800000Y-72250000D03*
G04 #@! TD*
D19*
G04 #@! TO.C,C24*
X144962500Y-111750000D03*
X147037500Y-111750000D03*
G04 #@! TD*
D28*
G04 #@! TO.C,Y1*
X102450000Y-103350000D03*
X102450000Y-106250000D03*
X104750000Y-106250000D03*
X104750000Y-103350000D03*
G04 #@! TD*
D14*
G04 #@! TO.C,C6*
X115787500Y-74000000D03*
X113712500Y-74000000D03*
G04 #@! TD*
D15*
G04 #@! TO.C,D4*
X93900000Y-130250000D03*
D16*
X88100000Y-130250000D03*
G04 #@! TD*
D14*
G04 #@! TO.C,C13*
X116000000Y-116500000D03*
X113925000Y-116500000D03*
G04 #@! TD*
G04 #@! TO.C,C1*
X147000000Y-101750000D03*
X144925000Y-101750000D03*
G04 #@! TD*
D20*
G04 #@! TO.C,R8*
X106500000Y-96250000D03*
X106500000Y-94250000D03*
G04 #@! TD*
D29*
G04 #@! TO.C,SW1*
X98750000Y-97192500D03*
X98750000Y-89232500D03*
X103250000Y-97192500D03*
X103250000Y-89232500D03*
G04 #@! TD*
D26*
G04 #@! TO.C,R7*
X130000000Y-123250000D03*
X132000000Y-123250000D03*
G04 #@! TD*
D19*
G04 #@! TO.C,C10*
X112750000Y-98000000D03*
X114825000Y-98000000D03*
G04 #@! TD*
D30*
G04 #@! TO.C,R11*
X84750000Y-123750000D03*
X86750000Y-123750000D03*
G04 #@! TD*
D15*
G04 #@! TO.C,D1*
X125900000Y-129000000D03*
D16*
X120100000Y-129000000D03*
G04 #@! TD*
D14*
G04 #@! TO.C,C15*
X108537500Y-115000000D03*
X106462500Y-115000000D03*
G04 #@! TD*
D10*
G04 #@! TO.C,C22*
X134725000Y-118382500D03*
X134725000Y-116307500D03*
G04 #@! TD*
D30*
G04 #@! TO.C,R13*
X121680000Y-123250000D03*
X119680000Y-123250000D03*
G04 #@! TD*
D19*
G04 #@! TO.C,C19*
X124425000Y-112000000D03*
X126500000Y-112000000D03*
G04 #@! TD*
D13*
G04 #@! TO.C,C9*
X126500000Y-101462500D03*
X126500000Y-103537500D03*
G04 #@! TD*
D14*
G04 #@! TO.C,C7*
X122500000Y-114000000D03*
X120425000Y-114000000D03*
G04 #@! TD*
D26*
G04 #@! TO.C,R6*
X114750000Y-123250000D03*
X116750000Y-123250000D03*
G04 #@! TD*
D10*
G04 #@! TO.C,C5*
X135000000Y-104075000D03*
X135000000Y-102000000D03*
G04 #@! TD*
D26*
G04 #@! TO.C,R1*
X112750000Y-95000000D03*
X114750000Y-95000000D03*
G04 #@! TD*
G04 #@! TO.C,R5*
X98250000Y-123250000D03*
X100250000Y-123250000D03*
G04 #@! TD*
D10*
G04 #@! TO.C,C8*
X110000000Y-102287500D03*
X110000000Y-100212500D03*
G04 #@! TD*
D19*
G04 #@! TO.C,C3*
X141425000Y-105250000D03*
X143500000Y-105250000D03*
G04 #@! TD*
D15*
G04 #@! TO.C,D3*
X110265000Y-129500000D03*
D16*
X104465000Y-129500000D03*
G04 #@! TD*
D14*
G04 #@! TO.C,C21*
X147037500Y-114000000D03*
X144962500Y-114000000D03*
G04 #@! TD*
G04 #@! TO.C,C14*
X108537500Y-112500000D03*
X106462500Y-112500000D03*
G04 #@! TD*
D30*
G04 #@! TO.C,R10*
X105965000Y-123250000D03*
X103965000Y-123250000D03*
G04 #@! TD*
M02*
