G04 #@! TF.GenerationSoftware,KiCad,Pcbnew,9.0.7*
G04 #@! TF.CreationDate,2026-06-16T10:29:00+03:00*
G04 #@! TF.ProjectId,access_control,61636365-7373-45f6-936f-6e74726f6c2e,rev?*
G04 #@! TF.SameCoordinates,Original*
G04 #@! TF.FileFunction,Copper,L2,Bot*
G04 #@! TF.FilePolarity,Positive*
%FSLAX46Y46*%
G04 Gerber Fmt 4.6, Leading zero omitted, Abs format (unit mm)*
G04 Created by KiCad (PCBNEW 9.0.7) date 2026-06-16 10:29:00*
%MOMM*%
%LPD*%
G01*
G04 APERTURE LIST*
G04 Aperture macros list*
%AMRoundRect*
0 Rectangle with rounded corners*
0 $1 Rounding radius*
0 $2 $3 $4 $5 $6 $7 $8 $9 X,Y pos of 4 corners*
0 Add a 4 corners polygon primitive as box body*
4,1,4,$2,$3,$4,$5,$6,$7,$8,$9,$2,$3,0*
0 Add four circle primitives for the rounded corners*
1,1,$1+$1,$2,$3*
1,1,$1+$1,$4,$5*
1,1,$1+$1,$6,$7*
1,1,$1+$1,$8,$9*
0 Add four rect primitives between the rounded corners*
20,1,$1+$1,$2,$3,$4,$5,0*
20,1,$1+$1,$4,$5,$6,$7,0*
20,1,$1+$1,$6,$7,$8,$9,0*
20,1,$1+$1,$8,$9,$2,$3,0*%
G04 Aperture macros list end*
G04 #@! TA.AperFunction,ComponentPad*
%ADD10R,1.700000X1.700000*%
G04 #@! TD*
G04 #@! TA.AperFunction,ComponentPad*
%ADD11C,1.700000*%
G04 #@! TD*
G04 #@! TA.AperFunction,ComponentPad*
%ADD12C,7.000000*%
G04 #@! TD*
G04 #@! TA.AperFunction,ComponentPad*
%ADD13R,1.905000X2.000000*%
G04 #@! TD*
G04 #@! TA.AperFunction,ComponentPad*
%ADD14O,1.905000X2.000000*%
G04 #@! TD*
G04 #@! TA.AperFunction,ComponentPad*
%ADD15C,1.600000*%
G04 #@! TD*
G04 #@! TA.AperFunction,ComponentPad*
%ADD16RoundRect,0.250000X-0.550000X0.550000X-0.550000X-0.550000X0.550000X-0.550000X0.550000X0.550000X0*%
G04 #@! TD*
G04 #@! TA.AperFunction,ComponentPad*
%ADD17C,2.600000*%
G04 #@! TD*
G04 #@! TA.AperFunction,ComponentPad*
%ADD18RoundRect,0.250000X-1.050000X1.050000X-1.050000X-1.050000X1.050000X-1.050000X1.050000X1.050000X0*%
G04 #@! TD*
G04 #@! TA.AperFunction,ComponentPad*
%ADD19C,1.800000*%
G04 #@! TD*
G04 #@! TA.AperFunction,ComponentPad*
%ADD20R,1.800000X1.800000*%
G04 #@! TD*
G04 #@! TA.AperFunction,ComponentPad*
%ADD21RoundRect,0.250000X0.550000X-0.550000X0.550000X0.550000X-0.550000X0.550000X-0.550000X-0.550000X0*%
G04 #@! TD*
G04 #@! TA.AperFunction,ComponentPad*
%ADD22RoundRect,0.250000X1.050000X-1.050000X1.050000X1.050000X-1.050000X1.050000X-1.050000X-1.050000X0*%
G04 #@! TD*
G04 #@! TA.AperFunction,ComponentPad*
%ADD23RoundRect,0.250000X-1.050000X-1.050000X1.050000X-1.050000X1.050000X1.050000X-1.050000X1.050000X0*%
G04 #@! TD*
G04 #@! TA.AperFunction,ViaPad*
%ADD24C,0.600000*%
G04 #@! TD*
G04 #@! TA.AperFunction,Conductor*
%ADD25C,0.200000*%
G04 #@! TD*
G04 #@! TA.AperFunction,Conductor*
%ADD26C,2.500000*%
G04 #@! TD*
G04 #@! TA.AperFunction,Conductor*
%ADD27C,1.000000*%
G04 #@! TD*
G04 #@! TA.AperFunction,Conductor*
%ADD28C,0.300000*%
G04 #@! TD*
G04 APERTURE END LIST*
D10*
G04 #@! TO.P,J1,1,Pin_1*
G04 #@! TO.N,GND*
X132870000Y-98500000D03*
D11*
G04 #@! TO.P,J1,2,Pin_2*
G04 #@! TO.N,/SWCLK*
X130330000Y-98500000D03*
G04 #@! TO.P,J1,3,Pin_3*
G04 #@! TO.N,/SWDIO*
X127790000Y-98500000D03*
G04 #@! TO.P,J1,4,Pin_4*
G04 #@! TO.N,+3V3*
X125250000Y-98500000D03*
G04 #@! TD*
D12*
G04 #@! TO.P,U5,*
G04 #@! TO.N,*
X86500000Y-78820000D03*
D13*
G04 #@! TO.P,U5,1,Vcc*
G04 #@! TO.N,Net-(D6-K)*
X83960000Y-95480000D03*
D14*
G04 #@! TO.P,U5,2,GND*
G04 #@! TO.N,GND*
X86500000Y-95480000D03*
G04 #@! TO.P,U5,3,Vout*
G04 #@! TO.N,+3V3*
X89040000Y-95480000D03*
G04 #@! TD*
D15*
G04 #@! TO.P,C29,2*
G04 #@! TO.N,GND*
X89210000Y-104547621D03*
D16*
G04 #@! TO.P,C29,1*
G04 #@! TO.N,+3V3*
X89210000Y-102047621D03*
G04 #@! TD*
D17*
G04 #@! TO.P,J4,2,Pin_2*
G04 #@! TO.N,+12V*
X69000000Y-103285000D03*
D18*
G04 #@! TO.P,J4,1,Pin_1*
G04 #@! TO.N,GND*
X69000000Y-98205000D03*
G04 #@! TD*
D19*
G04 #@! TO.P,D5,2,A*
G04 #@! TO.N,Net-(D5-A)*
X94710000Y-85270000D03*
D20*
G04 #@! TO.P,D5,1,K*
G04 #@! TO.N,GND*
X94710000Y-82730000D03*
G04 #@! TD*
D15*
G04 #@! TO.P,C26,2*
G04 #@! TO.N,GND*
X78460000Y-94980000D03*
D21*
G04 #@! TO.P,C26,1*
G04 #@! TO.N,Net-(D6-K)*
X78460000Y-97480000D03*
G04 #@! TD*
D15*
G04 #@! TO.P,C27,2*
G04 #@! TO.N,GND*
X82460000Y-103024888D03*
D16*
G04 #@! TO.P,C27,1*
G04 #@! TO.N,Net-(D6-K)*
X82460000Y-100524888D03*
G04 #@! TD*
D22*
G04 #@! TO.P,J5,1,Pin_1*
G04 #@! TO.N,+12V*
X156750000Y-119370000D03*
D17*
G04 #@! TO.P,J5,2,Pin_2*
G04 #@! TO.N,/RS232_2_RX*
X156750000Y-114290000D03*
G04 #@! TO.P,J5,3,Pin_3*
G04 #@! TO.N,/RS232_2_TX*
X156750000Y-109210000D03*
G04 #@! TO.P,J5,4,Pin_4*
G04 #@! TO.N,GND*
X156750000Y-104130000D03*
G04 #@! TD*
D22*
G04 #@! TO.P,J3,1,Pin_1*
G04 #@! TO.N,+12V*
X156750000Y-96910000D03*
D17*
G04 #@! TO.P,J3,2,Pin_2*
G04 #@! TO.N,/RS232_4_RX*
X156750000Y-91830000D03*
G04 #@! TO.P,J3,3,Pin_3*
G04 #@! TO.N,/RS232_4_TX*
X156750000Y-86750000D03*
G04 #@! TO.P,J3,4,Pin_4*
G04 #@! TO.N,GND*
X156750000Y-81670000D03*
G04 #@! TD*
D23*
G04 #@! TO.P,J9,1,Pin_1*
G04 #@! TO.N,/DOOR3_DRAIN*
X118385000Y-139077500D03*
D17*
G04 #@! TO.P,J9,2,Pin_2*
G04 #@! TO.N,+12V*
X123465000Y-139077500D03*
G04 #@! TD*
D22*
G04 #@! TO.P,J2,1,Pin_1*
G04 #@! TO.N,+12V*
X156750000Y-74700000D03*
D17*
G04 #@! TO.P,J2,2,Pin_2*
G04 #@! TO.N,/RS232_5_RX*
X156750000Y-69620000D03*
G04 #@! TO.P,J2,3,Pin_3*
G04 #@! TO.N,/RS232_5_TX*
X156750000Y-64540000D03*
G04 #@! TO.P,J2,4,Pin_4*
G04 #@! TO.N,GND*
X156750000Y-59460000D03*
G04 #@! TD*
D23*
G04 #@! TO.P,J8,1,Pin_1*
G04 #@! TO.N,/DOOR2_DRAIN*
X101635000Y-139077500D03*
D17*
G04 #@! TO.P,J8,2,Pin_2*
G04 #@! TO.N,+12V*
X106715000Y-139077500D03*
G04 #@! TD*
D23*
G04 #@! TO.P,J7,1,Pin_1*
G04 #@! TO.N,/DOOR1_DRAIN*
X85170000Y-139000000D03*
D17*
G04 #@! TO.P,J7,2,Pin_2*
G04 #@! TO.N,+12V*
X90250000Y-139000000D03*
G04 #@! TD*
D23*
G04 #@! TO.P,J10,1,Pin_1*
G04 #@! TO.N,/DOOR4_DRAIN*
X134885000Y-138827500D03*
D17*
G04 #@! TO.P,J10,2,Pin_2*
G04 #@! TO.N,+12V*
X139965000Y-138827500D03*
G04 #@! TD*
D22*
G04 #@! TO.P,J6,1,Pin_1*
G04 #@! TO.N,+12V*
X156750000Y-141450000D03*
D17*
G04 #@! TO.P,J6,2,Pin_2*
G04 #@! TO.N,/RS232_1_RX*
X156750000Y-136370000D03*
G04 #@! TO.P,J6,3,Pin_3*
G04 #@! TO.N,/RS232_1_TX*
X156750000Y-131290000D03*
G04 #@! TO.P,J6,4,Pin_4*
G04 #@! TO.N,GND*
X156750000Y-126210000D03*
G04 #@! TD*
D24*
G04 #@! TO.N,GND*
X72000000Y-83000000D03*
X72000000Y-85000000D03*
X72000000Y-87000000D03*
X72000000Y-89500000D03*
X72000000Y-92000000D03*
X108750000Y-92500000D03*
X148500000Y-96750000D03*
X143000000Y-122750000D03*
X106500000Y-103250000D03*
X81750000Y-126750000D03*
X81000000Y-125750000D03*
X150000000Y-68750000D03*
X98250000Y-125250000D03*
X97500000Y-126250000D03*
X114750000Y-124750000D03*
X114750000Y-125500000D03*
G04 #@! TO.N,+3V3*
X133500000Y-104000000D03*
X120500000Y-90750000D03*
G04 #@! TO.N,GND*
X113000000Y-112500000D03*
X128000000Y-103750000D03*
X130069653Y-125696529D03*
G04 #@! TO.N,+3V3*
X116000000Y-88750000D03*
X118500000Y-88750000D03*
G04 #@! TO.N,GND*
X111250000Y-95000000D03*
X114750000Y-96500000D03*
X109750000Y-98750000D03*
X106250000Y-101000000D03*
X100750000Y-108750000D03*
X145000000Y-105250000D03*
G04 #@! TO.N,/USART2_TX*
X135000000Y-112000000D03*
G04 #@! TO.N,/USART2_RX*
X133750000Y-112250000D03*
G04 #@! TO.N,GND*
X72250000Y-121000000D03*
X70250000Y-123000000D03*
X69000000Y-125750000D03*
X69000000Y-129000000D03*
X148500000Y-111750000D03*
G04 #@! TO.N,+3V3*
X135000000Y-107500000D03*
X133000000Y-109500000D03*
G04 #@! TO.N,/USART2_RX*
X127350000Y-110500000D03*
G04 #@! TO.N,GND*
X119000000Y-114250000D03*
X139250000Y-117000000D03*
X126500000Y-113750000D03*
X114000000Y-118250000D03*
X100750000Y-106250000D03*
G04 #@! TO.N,/USART2_TX*
X112250000Y-121500000D03*
X129350001Y-115319238D03*
X112250000Y-114500000D03*
G04 #@! TO.N,GND*
X106500000Y-110250000D03*
X110000000Y-81750000D03*
X93210000Y-100750000D03*
X93210000Y-102460000D03*
X98750000Y-93500000D03*
X139000000Y-102000000D03*
X130000000Y-125000000D03*
G04 #@! TD*
D25*
G04 #@! TO.N,+3V3*
X133500000Y-104000000D02*
X130750000Y-104000000D01*
X130750000Y-104000000D02*
X125250000Y-98500000D01*
X120500000Y-90750000D02*
X120500000Y-93750000D01*
X120500000Y-93750000D02*
X125250000Y-98500000D01*
D26*
G04 #@! TO.N,+12V*
X156750000Y-74700000D02*
X131450000Y-74700000D01*
X131450000Y-74700000D02*
X117250000Y-60500000D01*
D27*
X90250000Y-124535000D02*
X69000000Y-103285000D01*
X90250000Y-139000000D02*
X90250000Y-124535000D01*
D28*
G04 #@! TO.N,+3V3*
X116000000Y-88750000D02*
X118500000Y-88750000D01*
D26*
G04 #@! TO.N,GND*
X69000000Y-98205000D02*
X69045000Y-98205000D01*
G04 #@! TO.N,+12V*
X65000000Y-77250000D02*
X81750000Y-60500000D01*
X65000000Y-101750000D02*
X65000000Y-77250000D01*
X66535000Y-103285000D02*
X65000000Y-101750000D01*
X69000000Y-103285000D02*
X66535000Y-103285000D01*
X81750000Y-60500000D02*
X117250000Y-60500000D01*
D27*
G04 #@! TO.N,Net-(D6-K)*
X81504888Y-100524888D02*
X78460000Y-97480000D01*
X82460000Y-100524888D02*
X81504888Y-100524888D01*
X82460000Y-96980000D02*
X83960000Y-95480000D01*
X82460000Y-100524888D02*
X82460000Y-96980000D01*
D28*
G04 #@! TO.N,/USART2_TX*
X135000000Y-112000000D02*
X131680762Y-115319238D01*
X131680762Y-115319238D02*
X129350001Y-115319238D01*
G04 #@! TO.N,/USART2_RX*
X132000000Y-110500000D02*
X131250000Y-110500000D01*
X133750000Y-112250000D02*
X132000000Y-110500000D01*
D27*
G04 #@! TO.N,+12V*
X125216000Y-140828500D02*
X137964000Y-140828500D01*
X123465000Y-139077500D02*
X125216000Y-140828500D01*
X137964000Y-140828500D02*
X139965000Y-138827500D01*
X108716000Y-141078500D02*
X121464000Y-141078500D01*
X121464000Y-141078500D02*
X123465000Y-139077500D01*
X106715000Y-139077500D02*
X108716000Y-141078500D01*
X104714000Y-141078500D02*
X106715000Y-139077500D01*
X92328500Y-141078500D02*
X104714000Y-141078500D01*
X90250000Y-139000000D02*
X92328500Y-141078500D01*
D26*
X159501000Y-138699000D02*
X156750000Y-141450000D01*
X159501000Y-122121000D02*
X159501000Y-138699000D01*
X156750000Y-119370000D02*
X159501000Y-122121000D01*
X159500000Y-116620000D02*
X156750000Y-119370000D01*
X159500000Y-99660000D02*
X159500000Y-116620000D01*
X156750000Y-96910000D02*
X159500000Y-99660000D01*
X159500000Y-77450000D02*
X159500000Y-94160000D01*
X159500000Y-94160000D02*
X156750000Y-96910000D01*
X156750000Y-74700000D02*
X159500000Y-77450000D01*
D28*
G04 #@! TO.N,+3V3*
X133000000Y-109500000D02*
X135000000Y-107500000D01*
G04 #@! TO.N,/USART2_RX*
X131250000Y-110500000D02*
X127350000Y-110500000D01*
G04 #@! TO.N,/USART2_TX*
X112250000Y-114500000D02*
X112250000Y-121500000D01*
X129350001Y-115319238D02*
X129350001Y-115168683D01*
G04 #@! TD*
G04 #@! TA.AperFunction,Conductor*
G04 #@! TO.N,GND*
G36*
X162142539Y-56320185D02*
G01*
X162188294Y-56372989D01*
X162199500Y-56424500D01*
X162199500Y-144325500D01*
X162179815Y-144392539D01*
X162127011Y-144438294D01*
X162075500Y-144449500D01*
X63174500Y-144449500D01*
X63107461Y-144429815D01*
X63061706Y-144377011D01*
X63050500Y-144325500D01*
X63050500Y-137899983D01*
X83369500Y-137899983D01*
X83369500Y-140100001D01*
X83369501Y-140100018D01*
X83380000Y-140202796D01*
X83380001Y-140202799D01*
X83394716Y-140247204D01*
X83435186Y-140369334D01*
X83527288Y-140518656D01*
X83651344Y-140642712D01*
X83800666Y-140734814D01*
X83967203Y-140789999D01*
X84069991Y-140800500D01*
X86270008Y-140800499D01*
X86372797Y-140789999D01*
X86539334Y-140734814D01*
X86688656Y-140642712D01*
X86812712Y-140518656D01*
X86904814Y-140369334D01*
X86959999Y-140202797D01*
X86970500Y-140100009D01*
X86970499Y-137899992D01*
X86959999Y-137797203D01*
X86904814Y-137630666D01*
X86812712Y-137481344D01*
X86688656Y-137357288D01*
X86575511Y-137287500D01*
X86539336Y-137265187D01*
X86539331Y-137265185D01*
X86537862Y-137264698D01*
X86372797Y-137210001D01*
X86372795Y-137210000D01*
X86270010Y-137199500D01*
X84069998Y-137199500D01*
X84069981Y-137199501D01*
X83967203Y-137210000D01*
X83967200Y-137210001D01*
X83800668Y-137265185D01*
X83800663Y-137265187D01*
X83651342Y-137357289D01*
X83527289Y-137481342D01*
X83435187Y-137630663D01*
X83435185Y-137630668D01*
X83430962Y-137643412D01*
X83380001Y-137797203D01*
X83380001Y-137797204D01*
X83380000Y-137797204D01*
X83369500Y-137899983D01*
X63050500Y-137899983D01*
X63050500Y-102179651D01*
X63070185Y-102112612D01*
X63122989Y-102066857D01*
X63192147Y-102056913D01*
X63255703Y-102085938D01*
X63293477Y-102144716D01*
X63294268Y-102147534D01*
X63313361Y-102218789D01*
X63334843Y-102298964D01*
X63338843Y-102313889D01*
X63338845Y-102313896D01*
X63426652Y-102525881D01*
X63426657Y-102525891D01*
X63541391Y-102724616D01*
X63554041Y-102741100D01*
X63561187Y-102750413D01*
X63561189Y-102750418D01*
X63561191Y-102750418D01*
X63681078Y-102906659D01*
X63681084Y-102906666D01*
X65378331Y-104603913D01*
X65378336Y-104603917D01*
X65378339Y-104603920D01*
X65401623Y-104621786D01*
X65439043Y-104650499D01*
X65439044Y-104650501D01*
X65560386Y-104743610D01*
X65560388Y-104743611D01*
X65632549Y-104785273D01*
X65759112Y-104858345D01*
X65867606Y-104903284D01*
X65971113Y-104946158D01*
X66009781Y-104956519D01*
X66192761Y-105005549D01*
X66363389Y-105028012D01*
X66420265Y-105035500D01*
X66420266Y-105035500D01*
X68560031Y-105035500D01*
X68592124Y-105039725D01*
X68617943Y-105046642D01*
X68647986Y-105054693D01*
X68881989Y-105085500D01*
X68881996Y-105085500D01*
X69118004Y-105085500D01*
X69118011Y-105085500D01*
X69293826Y-105062353D01*
X69362859Y-105073118D01*
X69397691Y-105097611D01*
X89213181Y-124913101D01*
X89246666Y-124974424D01*
X89249500Y-125000782D01*
X89249500Y-137437080D01*
X89229815Y-137504119D01*
X89200986Y-137535456D01*
X89060302Y-137643406D01*
X89060295Y-137643412D01*
X88893412Y-137810295D01*
X88893406Y-137810302D01*
X88749730Y-137997545D01*
X88631719Y-138201943D01*
X88631714Y-138201954D01*
X88541394Y-138420006D01*
X88480306Y-138647989D01*
X88449501Y-138881979D01*
X88449500Y-138881995D01*
X88449500Y-139118004D01*
X88449501Y-139118020D01*
X88480306Y-139352010D01*
X88541394Y-139579993D01*
X88631714Y-139798045D01*
X88631719Y-139798056D01*
X88650136Y-139829954D01*
X88749727Y-140002450D01*
X88749729Y-140002453D01*
X88749730Y-140002454D01*
X88893406Y-140189697D01*
X88893412Y-140189704D01*
X89060295Y-140356587D01*
X89060302Y-140356593D01*
X89076909Y-140369336D01*
X89247550Y-140500273D01*
X89378918Y-140576118D01*
X89451943Y-140618280D01*
X89451948Y-140618282D01*
X89451951Y-140618284D01*
X89670007Y-140708606D01*
X89897986Y-140769693D01*
X90131989Y-140800500D01*
X90131996Y-140800500D01*
X90368004Y-140800500D01*
X90368011Y-140800500D01*
X90543826Y-140777353D01*
X90612859Y-140788118D01*
X90647691Y-140812611D01*
X91548235Y-141713155D01*
X91548264Y-141713186D01*
X91690714Y-141855636D01*
X91690718Y-141855639D01*
X91854579Y-141965128D01*
X91854586Y-141965132D01*
X91972292Y-142013887D01*
X92036664Y-142040551D01*
X92099219Y-142052994D01*
X92185290Y-142070114D01*
X92229956Y-142079000D01*
X92229959Y-142079000D01*
X104812543Y-142079000D01*
X104887175Y-142064154D01*
X104943281Y-142052994D01*
X105005836Y-142040551D01*
X105070208Y-142013887D01*
X105187914Y-141965132D01*
X105351782Y-141855639D01*
X105491139Y-141716282D01*
X105491139Y-141716280D01*
X105501347Y-141706073D01*
X105501348Y-141706070D01*
X106317310Y-140890109D01*
X106378631Y-140856626D01*
X106421170Y-140854853D01*
X106596989Y-140878000D01*
X106596996Y-140878000D01*
X106833004Y-140878000D01*
X106833011Y-140878000D01*
X107008826Y-140854853D01*
X107077858Y-140865618D01*
X107112690Y-140890111D01*
X107938860Y-141716281D01*
X107938861Y-141716282D01*
X108078218Y-141855639D01*
X108242086Y-141965132D01*
X108348745Y-142009311D01*
X108424164Y-142040551D01*
X108617454Y-142078999D01*
X108617457Y-142079000D01*
X108617459Y-142079000D01*
X121562543Y-142079000D01*
X121637175Y-142064154D01*
X121693281Y-142052994D01*
X121755836Y-142040551D01*
X121820208Y-142013887D01*
X121937914Y-141965132D01*
X122101782Y-141855639D01*
X122241139Y-141716282D01*
X122241139Y-141716280D01*
X122251347Y-141706073D01*
X122251348Y-141706070D01*
X123067310Y-140890109D01*
X123128631Y-140856626D01*
X123171170Y-140854853D01*
X123346989Y-140878000D01*
X123346996Y-140878000D01*
X123583004Y-140878000D01*
X123583011Y-140878000D01*
X123758826Y-140854853D01*
X123827859Y-140865618D01*
X123862691Y-140890111D01*
X124435735Y-141463155D01*
X124435764Y-141463186D01*
X124578214Y-141605636D01*
X124578218Y-141605639D01*
X124742079Y-141715128D01*
X124742092Y-141715135D01*
X124870833Y-141768461D01*
X124913744Y-141786235D01*
X124924164Y-141790551D01*
X125020812Y-141809775D01*
X125069135Y-141819387D01*
X125117458Y-141829000D01*
X125117459Y-141829000D01*
X138062542Y-141829000D01*
X138093566Y-141822828D01*
X138159188Y-141809775D01*
X138255836Y-141790551D01*
X138309165Y-141768461D01*
X138437914Y-141715132D01*
X138601782Y-141605639D01*
X138741139Y-141466282D01*
X138741139Y-141466280D01*
X138751347Y-141456073D01*
X138751348Y-141456070D01*
X139567310Y-140640109D01*
X139628631Y-140606626D01*
X139671170Y-140604853D01*
X139834681Y-140626379D01*
X139846973Y-140627998D01*
X139846989Y-140628000D01*
X139846996Y-140628000D01*
X140083004Y-140628000D01*
X140083011Y-140628000D01*
X140317014Y-140597193D01*
X140544993Y-140536106D01*
X140763049Y-140445784D01*
X140967450Y-140327773D01*
X141154699Y-140184092D01*
X141321592Y-140017199D01*
X141465273Y-139829950D01*
X141583284Y-139625549D01*
X141673606Y-139407493D01*
X141734693Y-139179514D01*
X141765500Y-138945511D01*
X141765500Y-138709489D01*
X141734693Y-138475486D01*
X141673606Y-138247507D01*
X141583284Y-138029451D01*
X141583282Y-138029448D01*
X141583280Y-138029443D01*
X141508544Y-137899998D01*
X141465273Y-137825050D01*
X141385361Y-137720906D01*
X141321593Y-137637802D01*
X141321587Y-137637795D01*
X141154704Y-137470912D01*
X141154697Y-137470906D01*
X140967454Y-137327230D01*
X140967453Y-137327229D01*
X140967450Y-137327227D01*
X140859992Y-137265186D01*
X140763056Y-137209219D01*
X140763045Y-137209214D01*
X140544993Y-137118894D01*
X140317010Y-137057806D01*
X140083020Y-137027001D01*
X140083017Y-137027000D01*
X140083011Y-137027000D01*
X139846989Y-137027000D01*
X139846983Y-137027000D01*
X139846979Y-137027001D01*
X139612989Y-137057806D01*
X139385006Y-137118894D01*
X139166954Y-137209214D01*
X139166943Y-137209219D01*
X138962545Y-137327230D01*
X138775302Y-137470906D01*
X138775295Y-137470912D01*
X138608412Y-137637795D01*
X138608406Y-137637802D01*
X138464730Y-137825045D01*
X138346719Y-138029443D01*
X138346714Y-138029454D01*
X138256394Y-138247506D01*
X138195306Y-138475489D01*
X138164501Y-138709479D01*
X138164500Y-138709495D01*
X138164500Y-138945504D01*
X138164501Y-138945521D01*
X138187645Y-139121324D01*
X138176879Y-139190360D01*
X138152387Y-139225190D01*
X137585899Y-139791681D01*
X137524576Y-139825166D01*
X137498218Y-139828000D01*
X136809500Y-139828000D01*
X136742461Y-139808315D01*
X136696706Y-139755511D01*
X136685500Y-139704000D01*
X136685499Y-137727498D01*
X136685498Y-137727481D01*
X136674999Y-137624703D01*
X136674998Y-137624700D01*
X136635041Y-137504119D01*
X136619814Y-137458166D01*
X136527712Y-137308844D01*
X136403656Y-137184788D01*
X136254334Y-137092686D01*
X136087797Y-137037501D01*
X136087795Y-137037500D01*
X135985010Y-137027000D01*
X133784998Y-137027000D01*
X133784981Y-137027001D01*
X133682203Y-137037500D01*
X133682200Y-137037501D01*
X133515668Y-137092685D01*
X133515663Y-137092687D01*
X133366342Y-137184789D01*
X133242289Y-137308842D01*
X133150187Y-137458163D01*
X133150185Y-137458168D01*
X133136787Y-137498601D01*
X133095001Y-137624703D01*
X133095001Y-137624704D01*
X133095000Y-137624704D01*
X133084500Y-137727483D01*
X133084500Y-137727491D01*
X133084500Y-138725489D01*
X133084501Y-139704000D01*
X133064816Y-139771039D01*
X133012013Y-139816794D01*
X132960501Y-139828000D01*
X125681782Y-139828000D01*
X125614743Y-139808315D01*
X125594101Y-139791681D01*
X125277611Y-139475191D01*
X125244126Y-139413868D01*
X125242353Y-139371328D01*
X125265500Y-139195511D01*
X125265500Y-138959489D01*
X125234693Y-138725486D01*
X125173606Y-138497507D01*
X125083284Y-138279451D01*
X125083282Y-138279448D01*
X125083280Y-138279443D01*
X125020380Y-138170498D01*
X124965273Y-138075050D01*
X124830951Y-137899998D01*
X124821593Y-137887802D01*
X124821587Y-137887795D01*
X124654704Y-137720912D01*
X124654697Y-137720906D01*
X124467454Y-137577230D01*
X124467453Y-137577229D01*
X124467450Y-137577227D01*
X124385957Y-137530177D01*
X124263056Y-137459219D01*
X124263045Y-137459214D01*
X124044993Y-137368894D01*
X123820884Y-137308844D01*
X123817014Y-137307807D01*
X123817013Y-137307806D01*
X123817010Y-137307806D01*
X123583020Y-137277001D01*
X123583017Y-137277000D01*
X123583011Y-137277000D01*
X123346989Y-137277000D01*
X123346983Y-137277000D01*
X123346979Y-137277001D01*
X123112989Y-137307806D01*
X122885006Y-137368894D01*
X122666954Y-137459214D01*
X122666943Y-137459219D01*
X122462545Y-137577230D01*
X122275302Y-137720906D01*
X122275295Y-137720912D01*
X122108412Y-137887795D01*
X122108406Y-137887802D01*
X121964730Y-138075045D01*
X121846719Y-138279443D01*
X121846714Y-138279454D01*
X121756394Y-138497506D01*
X121695306Y-138725489D01*
X121664501Y-138959479D01*
X121664500Y-138959495D01*
X121664500Y-139195504D01*
X121664501Y-139195521D01*
X121687645Y-139371324D01*
X121676879Y-139440360D01*
X121652387Y-139475190D01*
X121085899Y-140041681D01*
X121024576Y-140075166D01*
X120998218Y-140078000D01*
X120309500Y-140078000D01*
X120242461Y-140058315D01*
X120196706Y-140005511D01*
X120185500Y-139954000D01*
X120185499Y-137977498D01*
X120185498Y-137977481D01*
X120174999Y-137874703D01*
X120174998Y-137874700D01*
X120173530Y-137870269D01*
X120119814Y-137708166D01*
X120027712Y-137558844D01*
X119903656Y-137434788D01*
X119796824Y-137368894D01*
X119754336Y-137342687D01*
X119754331Y-137342685D01*
X119752862Y-137342198D01*
X119587797Y-137287501D01*
X119587795Y-137287500D01*
X119485010Y-137277000D01*
X117284998Y-137277000D01*
X117284981Y-137277001D01*
X117182203Y-137287500D01*
X117182200Y-137287501D01*
X117015668Y-137342685D01*
X117015663Y-137342687D01*
X116866342Y-137434789D01*
X116742289Y-137558842D01*
X116650187Y-137708163D01*
X116650185Y-137708168D01*
X116643780Y-137727498D01*
X116595001Y-137874703D01*
X116595001Y-137874704D01*
X116595000Y-137874704D01*
X116584500Y-137977483D01*
X116584500Y-137977496D01*
X116584501Y-139954000D01*
X116564816Y-140021039D01*
X116512013Y-140066794D01*
X116460501Y-140078000D01*
X109181783Y-140078000D01*
X109114744Y-140058315D01*
X109094102Y-140041681D01*
X108527611Y-139475190D01*
X108494126Y-139413867D01*
X108492353Y-139371328D01*
X108515500Y-139195511D01*
X108515500Y-138959489D01*
X108484693Y-138725486D01*
X108423606Y-138497507D01*
X108333284Y-138279451D01*
X108333282Y-138279448D01*
X108333280Y-138279443D01*
X108270380Y-138170498D01*
X108215273Y-138075050D01*
X108080951Y-137899998D01*
X108071593Y-137887802D01*
X108071587Y-137887795D01*
X107904704Y-137720912D01*
X107904697Y-137720906D01*
X107717454Y-137577230D01*
X107717453Y-137577229D01*
X107717450Y-137577227D01*
X107635957Y-137530177D01*
X107513056Y-137459219D01*
X107513045Y-137459214D01*
X107294993Y-137368894D01*
X107070884Y-137308844D01*
X107067014Y-137307807D01*
X107067013Y-137307806D01*
X107067010Y-137307806D01*
X106833020Y-137277001D01*
X106833017Y-137277000D01*
X106833011Y-137277000D01*
X106596989Y-137277000D01*
X106596983Y-137277000D01*
X106596979Y-137277001D01*
X106362989Y-137307806D01*
X106135006Y-137368894D01*
X105916954Y-137459214D01*
X105916943Y-137459219D01*
X105712545Y-137577230D01*
X105525302Y-137720906D01*
X105525295Y-137720912D01*
X105358412Y-137887795D01*
X105358406Y-137887802D01*
X105214730Y-138075045D01*
X105096719Y-138279443D01*
X105096714Y-138279454D01*
X105006394Y-138497506D01*
X104945306Y-138725489D01*
X104914501Y-138959479D01*
X104914500Y-138959495D01*
X104914500Y-139195504D01*
X104914501Y-139195521D01*
X104937645Y-139371324D01*
X104926879Y-139440360D01*
X104902387Y-139475190D01*
X104335899Y-140041681D01*
X104274576Y-140075166D01*
X104248218Y-140078000D01*
X103559500Y-140078000D01*
X103492461Y-140058315D01*
X103446706Y-140005511D01*
X103435500Y-139954000D01*
X103435499Y-137977498D01*
X103435498Y-137977481D01*
X103424999Y-137874703D01*
X103424998Y-137874700D01*
X103423530Y-137870269D01*
X103369814Y-137708166D01*
X103277712Y-137558844D01*
X103153656Y-137434788D01*
X103046824Y-137368894D01*
X103004336Y-137342687D01*
X103004331Y-137342685D01*
X103002862Y-137342198D01*
X102837797Y-137287501D01*
X102837795Y-137287500D01*
X102735010Y-137277000D01*
X100534998Y-137277000D01*
X100534981Y-137277001D01*
X100432203Y-137287500D01*
X100432200Y-137287501D01*
X100265668Y-137342685D01*
X100265663Y-137342687D01*
X100116342Y-137434789D01*
X99992289Y-137558842D01*
X99900187Y-137708163D01*
X99900185Y-137708168D01*
X99893780Y-137727498D01*
X99845001Y-137874703D01*
X99845001Y-137874704D01*
X99845000Y-137874704D01*
X99834500Y-137977483D01*
X99834500Y-137977496D01*
X99834501Y-139954000D01*
X99814816Y-140021039D01*
X99762013Y-140066794D01*
X99710501Y-140078000D01*
X92794282Y-140078000D01*
X92727243Y-140058315D01*
X92706601Y-140041681D01*
X92062611Y-139397691D01*
X92029126Y-139336368D01*
X92027353Y-139293828D01*
X92050500Y-139118011D01*
X92050500Y-138881989D01*
X92019693Y-138647986D01*
X91958606Y-138420007D01*
X91868284Y-138201951D01*
X91868282Y-138201948D01*
X91868280Y-138201943D01*
X91823052Y-138123607D01*
X91750273Y-137997550D01*
X91617909Y-137825050D01*
X91606593Y-137810302D01*
X91606587Y-137810295D01*
X91439704Y-137643412D01*
X91439697Y-137643406D01*
X91299014Y-137535456D01*
X91257811Y-137479028D01*
X91250500Y-137437080D01*
X91250500Y-124436456D01*
X91212052Y-124243170D01*
X91212051Y-124243169D01*
X91212051Y-124243165D01*
X91212049Y-124243160D01*
X91136635Y-124061092D01*
X91136628Y-124061079D01*
X91027139Y-123897218D01*
X91027136Y-123897214D01*
X90884686Y-123754764D01*
X90884655Y-123754735D01*
X81551073Y-114421153D01*
X111449500Y-114421153D01*
X111449500Y-114578846D01*
X111480261Y-114733489D01*
X111480264Y-114733501D01*
X111540602Y-114879172D01*
X111540606Y-114879179D01*
X111578602Y-114936044D01*
X111599480Y-115002721D01*
X111599500Y-115004935D01*
X111599500Y-120995064D01*
X111579815Y-121062103D01*
X111578603Y-121063954D01*
X111540608Y-121120817D01*
X111540602Y-121120828D01*
X111480264Y-121266498D01*
X111480261Y-121266510D01*
X111449500Y-121421153D01*
X111449500Y-121578846D01*
X111480261Y-121733489D01*
X111480264Y-121733501D01*
X111540602Y-121879172D01*
X111540609Y-121879185D01*
X111628210Y-122010288D01*
X111628212Y-122010291D01*
X111739707Y-122121786D01*
X111739711Y-122121789D01*
X111870814Y-122209390D01*
X111870827Y-122209397D01*
X112016498Y-122269735D01*
X112016503Y-122269737D01*
X112171153Y-122300499D01*
X112171156Y-122300500D01*
X112171158Y-122300500D01*
X112328844Y-122300500D01*
X112328845Y-122300499D01*
X112483497Y-122269737D01*
X112629179Y-122209394D01*
X112760289Y-122121789D01*
X112760292Y-122121786D01*
X112871788Y-122010291D01*
X112871789Y-122010289D01*
X112959394Y-121879179D01*
X113019737Y-121733497D01*
X113050500Y-121578842D01*
X113050500Y-121421158D01*
X113050500Y-121421155D01*
X113050499Y-121421153D01*
X113035375Y-121345121D01*
X113019737Y-121266503D01*
X112995015Y-121206818D01*
X112959397Y-121120828D01*
X112959396Y-121120827D01*
X112959394Y-121120821D01*
X112921396Y-121063953D01*
X112900520Y-120997276D01*
X112900500Y-120995064D01*
X112900500Y-115004935D01*
X112920185Y-114937896D01*
X112921366Y-114936090D01*
X112959394Y-114879179D01*
X113019737Y-114733497D01*
X113050500Y-114578842D01*
X113050500Y-114421158D01*
X113050500Y-114421155D01*
X113050499Y-114421153D01*
X113019738Y-114266510D01*
X113019737Y-114266503D01*
X112980591Y-114171995D01*
X112959397Y-114120827D01*
X112959390Y-114120814D01*
X112871789Y-113989711D01*
X112871786Y-113989707D01*
X112760292Y-113878213D01*
X112760288Y-113878210D01*
X112629185Y-113790609D01*
X112629172Y-113790602D01*
X112483501Y-113730264D01*
X112483489Y-113730261D01*
X112328845Y-113699500D01*
X112328842Y-113699500D01*
X112171158Y-113699500D01*
X112171155Y-113699500D01*
X112016510Y-113730261D01*
X112016498Y-113730264D01*
X111870827Y-113790602D01*
X111870814Y-113790609D01*
X111739711Y-113878210D01*
X111739707Y-113878213D01*
X111628213Y-113989707D01*
X111628210Y-113989711D01*
X111540609Y-114120814D01*
X111540602Y-114120827D01*
X111480264Y-114266498D01*
X111480261Y-114266510D01*
X111449500Y-114421153D01*
X81551073Y-114421153D01*
X77551073Y-110421153D01*
X126549500Y-110421153D01*
X126549500Y-110578846D01*
X126580261Y-110733489D01*
X126580264Y-110733501D01*
X126640602Y-110879172D01*
X126640609Y-110879185D01*
X126728210Y-111010288D01*
X126728213Y-111010292D01*
X126839707Y-111121786D01*
X126839711Y-111121789D01*
X126970814Y-111209390D01*
X126970827Y-111209397D01*
X127116498Y-111269735D01*
X127116503Y-111269737D01*
X127271153Y-111300499D01*
X127271156Y-111300500D01*
X127271158Y-111300500D01*
X127428844Y-111300500D01*
X127428845Y-111300499D01*
X127583497Y-111269737D01*
X127729179Y-111209394D01*
X127786044Y-111171397D01*
X127852721Y-111150520D01*
X127854935Y-111150500D01*
X131185931Y-111150500D01*
X131679192Y-111150500D01*
X131746231Y-111170185D01*
X131766873Y-111186819D01*
X132932984Y-112352930D01*
X132966469Y-112414253D01*
X132966920Y-112416420D01*
X132980261Y-112483489D01*
X132980264Y-112483501D01*
X133040602Y-112629172D01*
X133040609Y-112629185D01*
X133128210Y-112760288D01*
X133128213Y-112760292D01*
X133136306Y-112768385D01*
X133169791Y-112829708D01*
X133164807Y-112899400D01*
X133136306Y-112943747D01*
X131447635Y-114632419D01*
X131386312Y-114665904D01*
X131359954Y-114668738D01*
X129854936Y-114668738D01*
X129787897Y-114649053D01*
X129786091Y-114647871D01*
X129729180Y-114609844D01*
X129729173Y-114609840D01*
X129583502Y-114549502D01*
X129583490Y-114549499D01*
X129428846Y-114518738D01*
X129428843Y-114518738D01*
X129416860Y-114518738D01*
X129414070Y-114518183D01*
X129285932Y-114518183D01*
X129283142Y-114518738D01*
X129271159Y-114518738D01*
X129271156Y-114518738D01*
X129116511Y-114549499D01*
X129116499Y-114549502D01*
X128970828Y-114609840D01*
X128970815Y-114609847D01*
X128839712Y-114697448D01*
X128839708Y-114697451D01*
X128728214Y-114808945D01*
X128728211Y-114808949D01*
X128640610Y-114940052D01*
X128640603Y-114940065D01*
X128580265Y-115085736D01*
X128580262Y-115085748D01*
X128549501Y-115240391D01*
X128549501Y-115398084D01*
X128580262Y-115552727D01*
X128580265Y-115552739D01*
X128640603Y-115698410D01*
X128640610Y-115698423D01*
X128728211Y-115829526D01*
X128728214Y-115829530D01*
X128839708Y-115941024D01*
X128839712Y-115941027D01*
X128970815Y-116028628D01*
X128970828Y-116028635D01*
X129045810Y-116059693D01*
X129116504Y-116088975D01*
X129271154Y-116119737D01*
X129271157Y-116119738D01*
X129271159Y-116119738D01*
X129428845Y-116119738D01*
X129428846Y-116119737D01*
X129583498Y-116088975D01*
X129729180Y-116028632D01*
X129786045Y-115990635D01*
X129852722Y-115969758D01*
X129854936Y-115969738D01*
X131744833Y-115969738D01*
X131829377Y-115952920D01*
X131870506Y-115944739D01*
X131988889Y-115895703D01*
X132095431Y-115824515D01*
X135102931Y-112817013D01*
X135164252Y-112783530D01*
X135166317Y-112783099D01*
X135233497Y-112769737D01*
X135379179Y-112709394D01*
X135510289Y-112621789D01*
X135621789Y-112510289D01*
X135709394Y-112379179D01*
X135769737Y-112233497D01*
X135800500Y-112078842D01*
X135800500Y-111921158D01*
X135800500Y-111921155D01*
X135800499Y-111921153D01*
X135769738Y-111766510D01*
X135769737Y-111766503D01*
X135720438Y-111647483D01*
X135709397Y-111620827D01*
X135709390Y-111620814D01*
X135621789Y-111489711D01*
X135621786Y-111489707D01*
X135510292Y-111378213D01*
X135510288Y-111378210D01*
X135379185Y-111290609D01*
X135379172Y-111290602D01*
X135233501Y-111230264D01*
X135233489Y-111230261D01*
X135078845Y-111199500D01*
X135078842Y-111199500D01*
X134921158Y-111199500D01*
X134921155Y-111199500D01*
X134766510Y-111230261D01*
X134766498Y-111230264D01*
X134620827Y-111290602D01*
X134620814Y-111290609D01*
X134489711Y-111378210D01*
X134489707Y-111378213D01*
X134378213Y-111489707D01*
X134378210Y-111489711D01*
X134346725Y-111536832D01*
X134293112Y-111581637D01*
X134223787Y-111590344D01*
X134174732Y-111571043D01*
X134129185Y-111540609D01*
X134129172Y-111540602D01*
X133983501Y-111480264D01*
X133983489Y-111480261D01*
X133916420Y-111466920D01*
X133854509Y-111434535D01*
X133852930Y-111432984D01*
X132932127Y-110512181D01*
X132898642Y-110450858D01*
X132903626Y-110381166D01*
X132945498Y-110325233D01*
X133010962Y-110300816D01*
X133019808Y-110300500D01*
X133078844Y-110300500D01*
X133078845Y-110300499D01*
X133233497Y-110269737D01*
X133364638Y-110215417D01*
X133379172Y-110209397D01*
X133379172Y-110209396D01*
X133379179Y-110209394D01*
X133510289Y-110121789D01*
X133621789Y-110010289D01*
X133709394Y-109879179D01*
X133769737Y-109733497D01*
X133783079Y-109666417D01*
X133815462Y-109604508D01*
X133816956Y-109602987D01*
X135102931Y-108317013D01*
X135164252Y-108283530D01*
X135166284Y-108283106D01*
X135233497Y-108269737D01*
X135379179Y-108209394D01*
X135510289Y-108121789D01*
X135621789Y-108010289D01*
X135709394Y-107879179D01*
X135769737Y-107733497D01*
X135800500Y-107578842D01*
X135800500Y-107421158D01*
X135800500Y-107421155D01*
X135800499Y-107421153D01*
X135769738Y-107266510D01*
X135769737Y-107266503D01*
X135769735Y-107266498D01*
X135709397Y-107120827D01*
X135709390Y-107120814D01*
X135621789Y-106989711D01*
X135621786Y-106989707D01*
X135510292Y-106878213D01*
X135510288Y-106878210D01*
X135379185Y-106790609D01*
X135379172Y-106790602D01*
X135233501Y-106730264D01*
X135233489Y-106730261D01*
X135078845Y-106699500D01*
X135078842Y-106699500D01*
X134921158Y-106699500D01*
X134921155Y-106699500D01*
X134766510Y-106730261D01*
X134766498Y-106730264D01*
X134620827Y-106790602D01*
X134620814Y-106790609D01*
X134489711Y-106878210D01*
X134489707Y-106878213D01*
X134378213Y-106989707D01*
X134378210Y-106989711D01*
X134290609Y-107120814D01*
X134290602Y-107120827D01*
X134230263Y-107266500D01*
X134230261Y-107266506D01*
X134216919Y-107333581D01*
X134184533Y-107395491D01*
X134182983Y-107397069D01*
X132897069Y-108682984D01*
X132835746Y-108716469D01*
X132833580Y-108716920D01*
X132766508Y-108730261D01*
X132766498Y-108730264D01*
X132620827Y-108790602D01*
X132620814Y-108790609D01*
X132489711Y-108878210D01*
X132489707Y-108878213D01*
X132378213Y-108989707D01*
X132378210Y-108989711D01*
X132290609Y-109120814D01*
X132290602Y-109120827D01*
X132230264Y-109266498D01*
X132230261Y-109266510D01*
X132199500Y-109421153D01*
X132199500Y-109578846D01*
X132224929Y-109706685D01*
X132218702Y-109776276D01*
X132175839Y-109831454D01*
X132109949Y-109854698D01*
X132079123Y-109852494D01*
X132064070Y-109849500D01*
X132064069Y-109849500D01*
X131314069Y-109849500D01*
X127854935Y-109849500D01*
X127787896Y-109829815D01*
X127786090Y-109828633D01*
X127729179Y-109790606D01*
X127729172Y-109790602D01*
X127583501Y-109730264D01*
X127583489Y-109730261D01*
X127428845Y-109699500D01*
X127428842Y-109699500D01*
X127271158Y-109699500D01*
X127271155Y-109699500D01*
X127116510Y-109730261D01*
X127116498Y-109730264D01*
X126970827Y-109790602D01*
X126970814Y-109790609D01*
X126839711Y-109878210D01*
X126839707Y-109878213D01*
X126728213Y-109989707D01*
X126728210Y-109989711D01*
X126640609Y-110120814D01*
X126640602Y-110120827D01*
X126580264Y-110266498D01*
X126580261Y-110266510D01*
X126549500Y-110421153D01*
X77551073Y-110421153D01*
X70812611Y-103682691D01*
X70779126Y-103621368D01*
X70777353Y-103578828D01*
X70800500Y-103403011D01*
X70800500Y-103166989D01*
X70769693Y-102932986D01*
X70708606Y-102705007D01*
X70618284Y-102486951D01*
X70618282Y-102486948D01*
X70618280Y-102486943D01*
X70535484Y-102343538D01*
X70500273Y-102282550D01*
X70396690Y-102147558D01*
X70356593Y-102095302D01*
X70356587Y-102095295D01*
X70189704Y-101928412D01*
X70189697Y-101928406D01*
X70002454Y-101784730D01*
X70002453Y-101784729D01*
X70002450Y-101784727D01*
X69920957Y-101737677D01*
X69798056Y-101666719D01*
X69798045Y-101666714D01*
X69579993Y-101576394D01*
X69457399Y-101543545D01*
X69352014Y-101515307D01*
X69352013Y-101515306D01*
X69352010Y-101515306D01*
X69118020Y-101484501D01*
X69118017Y-101484500D01*
X69118011Y-101484500D01*
X68881989Y-101484500D01*
X68881983Y-101484500D01*
X68881979Y-101484501D01*
X68647987Y-101515306D01*
X68592124Y-101530275D01*
X68560031Y-101534500D01*
X67311443Y-101534500D01*
X67244404Y-101514815D01*
X67223762Y-101498181D01*
X66786819Y-101061238D01*
X66753334Y-100999915D01*
X66750500Y-100973557D01*
X66750500Y-97105013D01*
X67200000Y-97105013D01*
X67200000Y-97955000D01*
X68399999Y-97955000D01*
X68374979Y-98015402D01*
X68350000Y-98140981D01*
X68350000Y-98269019D01*
X68374979Y-98394598D01*
X68399999Y-98455000D01*
X67200001Y-98455000D01*
X67200001Y-99304986D01*
X67210494Y-99407697D01*
X67265641Y-99574119D01*
X67265643Y-99574124D01*
X67357684Y-99723345D01*
X67481654Y-99847315D01*
X67630875Y-99939356D01*
X67630880Y-99939358D01*
X67797302Y-99994505D01*
X67797309Y-99994506D01*
X67900019Y-100004999D01*
X68749999Y-100004999D01*
X68750000Y-100004998D01*
X68750000Y-98805001D01*
X68810402Y-98830021D01*
X68935981Y-98855000D01*
X69064019Y-98855000D01*
X69189598Y-98830021D01*
X69250000Y-98805001D01*
X69250000Y-100004999D01*
X70099972Y-100004999D01*
X70099986Y-100004998D01*
X70202697Y-99994505D01*
X70369119Y-99939358D01*
X70369124Y-99939356D01*
X70518345Y-99847315D01*
X70642315Y-99723345D01*
X70734356Y-99574124D01*
X70734358Y-99574119D01*
X70789505Y-99407697D01*
X70789506Y-99407690D01*
X70799999Y-99304986D01*
X70800000Y-99304973D01*
X70800000Y-98455000D01*
X69600001Y-98455000D01*
X69625021Y-98394598D01*
X69650000Y-98269019D01*
X69650000Y-98140981D01*
X69625021Y-98015402D01*
X69600001Y-97955000D01*
X70799999Y-97955000D01*
X70799999Y-97105028D01*
X70799998Y-97105013D01*
X70789505Y-97002302D01*
X70760854Y-96915838D01*
X70748973Y-96879983D01*
X77159500Y-96879983D01*
X77159500Y-98080001D01*
X77159501Y-98080018D01*
X77170000Y-98182796D01*
X77170001Y-98182799D01*
X77192270Y-98250000D01*
X77225186Y-98349334D01*
X77317288Y-98498656D01*
X77441344Y-98622712D01*
X77590666Y-98714814D01*
X77757203Y-98769999D01*
X77859991Y-98780500D01*
X78294217Y-98780499D01*
X78361256Y-98800183D01*
X78381898Y-98816818D01*
X80724623Y-101159543D01*
X80724652Y-101159574D01*
X80867102Y-101302024D01*
X80867106Y-101302027D01*
X81030967Y-101411516D01*
X81030980Y-101411523D01*
X81159721Y-101464849D01*
X81207166Y-101484501D01*
X81213052Y-101486939D01*
X81239080Y-101492116D01*
X81300990Y-101524498D01*
X81312171Y-101538379D01*
X81312807Y-101537877D01*
X81317288Y-101543544D01*
X81441344Y-101667600D01*
X81590666Y-101759702D01*
X81652440Y-101780172D01*
X81709884Y-101819943D01*
X81736707Y-101884459D01*
X81737053Y-101907607D01*
X81734077Y-101945412D01*
X82413554Y-102624888D01*
X82407339Y-102624888D01*
X82305606Y-102652147D01*
X82214394Y-102704808D01*
X82139920Y-102779282D01*
X82087259Y-102870494D01*
X82060000Y-102972227D01*
X82060000Y-102978441D01*
X81380524Y-102298965D01*
X81380523Y-102298965D01*
X81348143Y-102343532D01*
X81255244Y-102525856D01*
X81192009Y-102720470D01*
X81160000Y-102922570D01*
X81160000Y-103127205D01*
X81192009Y-103329305D01*
X81255244Y-103523919D01*
X81348141Y-103706238D01*
X81348147Y-103706247D01*
X81380523Y-103750809D01*
X81380524Y-103750810D01*
X82060000Y-103071334D01*
X82060000Y-103077549D01*
X82087259Y-103179282D01*
X82139920Y-103270494D01*
X82214394Y-103344968D01*
X82305606Y-103397629D01*
X82407339Y-103424888D01*
X82413553Y-103424888D01*
X81734076Y-104104362D01*
X81778650Y-104136747D01*
X81960968Y-104229643D01*
X82155582Y-104292878D01*
X82357683Y-104324888D01*
X82562317Y-104324888D01*
X82606033Y-104317964D01*
X82764417Y-104292878D01*
X82959031Y-104229643D01*
X83141349Y-104136747D01*
X83185921Y-104104362D01*
X82506447Y-103424888D01*
X82512661Y-103424888D01*
X82614394Y-103397629D01*
X82705606Y-103344968D01*
X82780080Y-103270494D01*
X82832741Y-103179282D01*
X82860000Y-103077549D01*
X82860000Y-103071335D01*
X83539474Y-103750809D01*
X83571859Y-103706237D01*
X83664755Y-103523919D01*
X83727990Y-103329305D01*
X83760000Y-103127205D01*
X83760000Y-102922570D01*
X83727990Y-102720470D01*
X83664755Y-102525856D01*
X83571859Y-102343538D01*
X83539474Y-102298965D01*
X83539474Y-102298964D01*
X82860000Y-102978439D01*
X82860000Y-102972227D01*
X82832741Y-102870494D01*
X82780080Y-102779282D01*
X82705606Y-102704808D01*
X82614394Y-102652147D01*
X82512661Y-102624888D01*
X82506446Y-102624888D01*
X83185921Y-101945413D01*
X83182946Y-101907607D01*
X83197310Y-101839229D01*
X83246361Y-101789472D01*
X83267555Y-101780173D01*
X83329334Y-101759702D01*
X83478656Y-101667600D01*
X83602712Y-101543544D01*
X83661888Y-101447604D01*
X87909500Y-101447604D01*
X87909500Y-102647622D01*
X87909501Y-102647639D01*
X87920000Y-102750412D01*
X87920001Y-102750418D01*
X87975185Y-102916952D01*
X87975187Y-102916957D01*
X87985630Y-102933888D01*
X88067288Y-103066277D01*
X88191344Y-103190333D01*
X88340666Y-103282435D01*
X88402440Y-103302905D01*
X88459884Y-103342676D01*
X88486707Y-103407192D01*
X88487053Y-103430340D01*
X88484077Y-103468145D01*
X89163554Y-104147621D01*
X89157339Y-104147621D01*
X89055606Y-104174880D01*
X88964394Y-104227541D01*
X88889920Y-104302015D01*
X88837259Y-104393227D01*
X88810000Y-104494960D01*
X88810000Y-104501174D01*
X88130524Y-103821698D01*
X88130523Y-103821698D01*
X88098143Y-103866265D01*
X88005244Y-104048589D01*
X87942009Y-104243203D01*
X87910000Y-104445303D01*
X87910000Y-104649938D01*
X87942009Y-104852038D01*
X88005244Y-105046652D01*
X88098141Y-105228971D01*
X88098147Y-105228980D01*
X88130523Y-105273542D01*
X88130524Y-105273543D01*
X88810000Y-104594067D01*
X88810000Y-104600282D01*
X88837259Y-104702015D01*
X88889920Y-104793227D01*
X88964394Y-104867701D01*
X89055606Y-104920362D01*
X89157339Y-104947621D01*
X89163553Y-104947621D01*
X88484076Y-105627095D01*
X88528650Y-105659480D01*
X88710968Y-105752376D01*
X88905582Y-105815611D01*
X89107683Y-105847621D01*
X89312317Y-105847621D01*
X89514417Y-105815611D01*
X89709031Y-105752376D01*
X89891349Y-105659480D01*
X89935921Y-105627095D01*
X89256447Y-104947621D01*
X89262661Y-104947621D01*
X89364394Y-104920362D01*
X89455606Y-104867701D01*
X89530080Y-104793227D01*
X89582741Y-104702015D01*
X89610000Y-104600282D01*
X89610000Y-104594068D01*
X90289474Y-105273542D01*
X90321859Y-105228970D01*
X90414755Y-105046652D01*
X90477990Y-104852038D01*
X90510000Y-104649938D01*
X90510000Y-104445303D01*
X90477990Y-104243203D01*
X90414755Y-104048589D01*
X90321859Y-103866271D01*
X90289474Y-103821698D01*
X90289474Y-103821697D01*
X89610000Y-104501172D01*
X89610000Y-104494960D01*
X89582741Y-104393227D01*
X89530080Y-104302015D01*
X89455606Y-104227541D01*
X89364394Y-104174880D01*
X89262661Y-104147621D01*
X89256446Y-104147621D01*
X89935921Y-103468146D01*
X89932946Y-103430340D01*
X89947310Y-103361962D01*
X89996361Y-103312205D01*
X90017555Y-103302906D01*
X90079334Y-103282435D01*
X90228656Y-103190333D01*
X90352712Y-103066277D01*
X90444814Y-102916955D01*
X90499999Y-102750418D01*
X90502636Y-102724612D01*
X90508078Y-102671334D01*
X90510500Y-102647630D01*
X90510499Y-101447613D01*
X90499999Y-101344824D01*
X90444814Y-101178287D01*
X90352712Y-101028965D01*
X90228656Y-100904909D01*
X90079334Y-100812807D01*
X89912797Y-100757622D01*
X89912795Y-100757621D01*
X89810010Y-100747121D01*
X88609998Y-100747121D01*
X88609981Y-100747122D01*
X88507203Y-100757621D01*
X88507200Y-100757622D01*
X88340668Y-100812806D01*
X88340663Y-100812808D01*
X88191342Y-100904910D01*
X88067289Y-101028963D01*
X87975187Y-101178284D01*
X87975186Y-101178287D01*
X87920001Y-101344824D01*
X87920001Y-101344825D01*
X87920000Y-101344825D01*
X87909500Y-101447604D01*
X83661888Y-101447604D01*
X83694814Y-101394222D01*
X83749999Y-101227685D01*
X83760500Y-101124897D01*
X83760499Y-99924880D01*
X83749999Y-99822091D01*
X83694814Y-99655554D01*
X83602712Y-99506232D01*
X83496818Y-99400338D01*
X83463334Y-99339015D01*
X83460500Y-99312657D01*
X83460500Y-97445781D01*
X83480185Y-97378742D01*
X83496815Y-97358104D01*
X83838101Y-97016817D01*
X83899424Y-96983333D01*
X83925782Y-96980499D01*
X84960371Y-96980499D01*
X84960372Y-96980499D01*
X85019983Y-96974091D01*
X85154831Y-96923796D01*
X85270046Y-96837546D01*
X85356296Y-96722331D01*
X85366872Y-96693974D01*
X85408740Y-96638041D01*
X85474204Y-96613622D01*
X85542477Y-96628472D01*
X85555940Y-96636988D01*
X85738723Y-96769788D01*
X85942429Y-96873582D01*
X86159871Y-96944234D01*
X86250000Y-96958509D01*
X86250000Y-95970747D01*
X86287708Y-95992518D01*
X86427591Y-96030000D01*
X86572409Y-96030000D01*
X86712292Y-95992518D01*
X86750000Y-95970747D01*
X86750000Y-96958508D01*
X86840128Y-96944234D01*
X87057570Y-96873582D01*
X87261276Y-96769788D01*
X87446242Y-96635402D01*
X87607905Y-96473739D01*
X87669371Y-96389137D01*
X87724701Y-96346470D01*
X87794314Y-96340491D01*
X87856109Y-96373096D01*
X87870007Y-96389134D01*
X87931714Y-96474066D01*
X88093434Y-96635786D01*
X88278462Y-96770217D01*
X88407333Y-96835880D01*
X88482244Y-96874049D01*
X88699751Y-96944721D01*
X88699752Y-96944721D01*
X88699755Y-96944722D01*
X88925646Y-96980500D01*
X88925647Y-96980500D01*
X89154353Y-96980500D01*
X89154354Y-96980500D01*
X89380245Y-96944722D01*
X89380248Y-96944721D01*
X89380249Y-96944721D01*
X89597755Y-96874049D01*
X89597755Y-96874048D01*
X89597758Y-96874048D01*
X89801538Y-96770217D01*
X89986566Y-96635786D01*
X90148286Y-96474066D01*
X90282717Y-96289038D01*
X90386548Y-96085258D01*
X90457222Y-95867745D01*
X90493000Y-95641854D01*
X90493000Y-95318146D01*
X90457222Y-95092255D01*
X90457221Y-95092251D01*
X90457221Y-95092250D01*
X90386549Y-94874744D01*
X90315037Y-94734394D01*
X90282717Y-94670962D01*
X90148286Y-94485934D01*
X89986566Y-94324214D01*
X89801538Y-94189783D01*
X89597755Y-94085950D01*
X89380248Y-94015278D01*
X89194812Y-93985908D01*
X89154354Y-93979500D01*
X88925646Y-93979500D01*
X88885188Y-93985908D01*
X88699753Y-94015278D01*
X88699750Y-94015278D01*
X88482244Y-94085950D01*
X88278461Y-94189783D01*
X88212550Y-94237671D01*
X88093434Y-94324214D01*
X88093432Y-94324216D01*
X88093431Y-94324216D01*
X87931716Y-94485931D01*
X87931709Y-94485940D01*
X87870007Y-94570864D01*
X87814677Y-94613530D01*
X87745063Y-94619508D01*
X87683269Y-94586901D01*
X87669372Y-94570863D01*
X87607907Y-94486263D01*
X87607902Y-94486257D01*
X87446242Y-94324597D01*
X87261276Y-94190211D01*
X87057568Y-94086417D01*
X86840124Y-94015765D01*
X86750000Y-94001490D01*
X86750000Y-94989252D01*
X86712292Y-94967482D01*
X86572409Y-94930000D01*
X86427591Y-94930000D01*
X86287708Y-94967482D01*
X86250000Y-94989252D01*
X86250000Y-94001490D01*
X86249999Y-94001490D01*
X86159875Y-94015765D01*
X85942431Y-94086417D01*
X85738719Y-94190213D01*
X85555939Y-94323010D01*
X85490132Y-94346490D01*
X85422079Y-94330664D01*
X85373384Y-94280558D01*
X85366875Y-94266033D01*
X85356296Y-94237669D01*
X85356295Y-94237667D01*
X85356293Y-94237664D01*
X85270047Y-94122455D01*
X85270044Y-94122452D01*
X85154835Y-94036206D01*
X85154828Y-94036202D01*
X85019982Y-93985908D01*
X85019983Y-93985908D01*
X84960383Y-93979501D01*
X84960381Y-93979500D01*
X84960373Y-93979500D01*
X84960364Y-93979500D01*
X82959629Y-93979500D01*
X82959623Y-93979501D01*
X82900016Y-93985908D01*
X82765171Y-94036202D01*
X82765164Y-94036206D01*
X82649955Y-94122452D01*
X82649952Y-94122455D01*
X82563706Y-94237664D01*
X82563702Y-94237671D01*
X82513408Y-94372517D01*
X82507001Y-94432116D01*
X82507000Y-94432135D01*
X82507000Y-95466716D01*
X82487315Y-95533755D01*
X82470681Y-95554397D01*
X82104969Y-95920110D01*
X81822220Y-96202859D01*
X81822218Y-96202861D01*
X81779895Y-96245184D01*
X81682859Y-96342219D01*
X81573371Y-96506079D01*
X81573364Y-96506092D01*
X81497950Y-96688160D01*
X81497947Y-96688170D01*
X81459500Y-96881456D01*
X81459500Y-98765218D01*
X81439815Y-98832257D01*
X81387011Y-98878012D01*
X81317853Y-98887956D01*
X81254297Y-98858931D01*
X81247819Y-98852899D01*
X79796818Y-97401898D01*
X79763333Y-97340575D01*
X79760499Y-97314217D01*
X79760499Y-96879998D01*
X79760498Y-96879981D01*
X79749999Y-96777203D01*
X79749998Y-96777200D01*
X79747542Y-96769788D01*
X79694814Y-96610666D01*
X79602712Y-96461344D01*
X79478656Y-96337288D01*
X79329334Y-96245186D01*
X79267558Y-96224715D01*
X79210115Y-96184943D01*
X79183292Y-96120427D01*
X79182946Y-96097280D01*
X79185921Y-96059473D01*
X78506447Y-95380000D01*
X78512661Y-95380000D01*
X78614394Y-95352741D01*
X78705606Y-95300080D01*
X78780080Y-95225606D01*
X78832741Y-95134394D01*
X78860000Y-95032661D01*
X78860000Y-95026447D01*
X79539474Y-95705921D01*
X79571859Y-95661349D01*
X79664755Y-95479031D01*
X79727990Y-95284417D01*
X79760000Y-95082317D01*
X79760000Y-94877682D01*
X79727990Y-94675582D01*
X79664755Y-94480968D01*
X79571859Y-94298650D01*
X79539474Y-94254077D01*
X79539474Y-94254076D01*
X78860000Y-94933551D01*
X78860000Y-94927339D01*
X78832741Y-94825606D01*
X78780080Y-94734394D01*
X78705606Y-94659920D01*
X78614394Y-94607259D01*
X78512661Y-94580000D01*
X78506446Y-94580000D01*
X79185922Y-93900524D01*
X79185921Y-93900523D01*
X79141359Y-93868147D01*
X79141350Y-93868141D01*
X78959031Y-93775244D01*
X78764417Y-93712009D01*
X78562317Y-93680000D01*
X78357683Y-93680000D01*
X78155582Y-93712009D01*
X77960968Y-93775244D01*
X77778644Y-93868143D01*
X77734077Y-93900523D01*
X77734077Y-93900524D01*
X78413554Y-94580000D01*
X78407339Y-94580000D01*
X78305606Y-94607259D01*
X78214394Y-94659920D01*
X78139920Y-94734394D01*
X78087259Y-94825606D01*
X78060000Y-94927339D01*
X78060000Y-94933553D01*
X77380524Y-94254077D01*
X77380523Y-94254077D01*
X77348143Y-94298644D01*
X77255244Y-94480968D01*
X77192009Y-94675582D01*
X77160000Y-94877682D01*
X77160000Y-95082317D01*
X77192009Y-95284417D01*
X77255244Y-95479031D01*
X77348141Y-95661350D01*
X77348147Y-95661359D01*
X77380523Y-95705921D01*
X77380524Y-95705922D01*
X78060000Y-95026446D01*
X78060000Y-95032661D01*
X78087259Y-95134394D01*
X78139920Y-95225606D01*
X78214394Y-95300080D01*
X78305606Y-95352741D01*
X78407339Y-95380000D01*
X78413553Y-95380000D01*
X77734076Y-96059474D01*
X77737052Y-96097282D01*
X77722687Y-96165659D01*
X77673636Y-96215415D01*
X77652440Y-96224715D01*
X77590672Y-96245184D01*
X77590663Y-96245187D01*
X77441342Y-96337289D01*
X77317289Y-96461342D01*
X77225187Y-96610663D01*
X77225185Y-96610668D01*
X77216989Y-96635402D01*
X77170001Y-96777203D01*
X77170001Y-96777204D01*
X77170000Y-96777204D01*
X77159500Y-96879983D01*
X70748973Y-96879983D01*
X70734358Y-96835880D01*
X70734356Y-96835875D01*
X70642315Y-96686654D01*
X70518345Y-96562684D01*
X70369124Y-96470643D01*
X70369119Y-96470641D01*
X70202697Y-96415494D01*
X70202690Y-96415493D01*
X70099986Y-96405000D01*
X69250000Y-96405000D01*
X69250000Y-97604998D01*
X69189598Y-97579979D01*
X69064019Y-97555000D01*
X68935981Y-97555000D01*
X68810402Y-97579979D01*
X68750000Y-97604998D01*
X68750000Y-96405000D01*
X67900028Y-96405000D01*
X67900012Y-96405001D01*
X67797302Y-96415494D01*
X67630880Y-96470641D01*
X67630875Y-96470643D01*
X67481654Y-96562684D01*
X67357684Y-96686654D01*
X67265643Y-96835875D01*
X67265641Y-96835880D01*
X67210494Y-97002302D01*
X67210493Y-97002309D01*
X67200000Y-97105013D01*
X66750500Y-97105013D01*
X66750500Y-90671153D01*
X119699500Y-90671153D01*
X119699500Y-90828846D01*
X119730261Y-90983489D01*
X119730264Y-90983501D01*
X119790602Y-91129172D01*
X119790609Y-91129185D01*
X119878602Y-91260874D01*
X119899480Y-91327551D01*
X119899500Y-91329765D01*
X119899500Y-93663330D01*
X119899499Y-93663348D01*
X119899499Y-93829054D01*
X119899498Y-93829054D01*
X119918649Y-93900524D01*
X119940423Y-93981785D01*
X119942803Y-93985908D01*
X119969358Y-94031900D01*
X119969359Y-94031904D01*
X119969360Y-94031904D01*
X120019479Y-94118714D01*
X120019481Y-94118717D01*
X120138349Y-94237585D01*
X120138355Y-94237590D01*
X123916241Y-98015476D01*
X123949726Y-98076799D01*
X123946492Y-98141473D01*
X123932753Y-98183757D01*
X123899500Y-98393713D01*
X123899500Y-98606287D01*
X123905602Y-98644812D01*
X123927175Y-98781022D01*
X123932754Y-98816243D01*
X123954803Y-98884104D01*
X123998444Y-99018414D01*
X124094951Y-99207820D01*
X124219890Y-99379786D01*
X124370213Y-99530109D01*
X124542179Y-99655048D01*
X124542181Y-99655049D01*
X124542184Y-99655051D01*
X124731588Y-99751557D01*
X124933757Y-99817246D01*
X125143713Y-99850500D01*
X125143714Y-99850500D01*
X125356286Y-99850500D01*
X125356287Y-99850500D01*
X125566243Y-99817246D01*
X125608523Y-99803507D01*
X125678362Y-99801511D01*
X125734521Y-99833756D01*
X130381284Y-104480520D01*
X130381286Y-104480521D01*
X130381290Y-104480524D01*
X130497507Y-104547621D01*
X130518216Y-104559577D01*
X130670943Y-104600501D01*
X130670945Y-104600501D01*
X130836654Y-104600501D01*
X130836670Y-104600500D01*
X132920234Y-104600500D01*
X132987273Y-104620185D01*
X132989125Y-104621398D01*
X133120814Y-104709390D01*
X133120827Y-104709397D01*
X133230975Y-104755021D01*
X133266503Y-104769737D01*
X133421153Y-104800499D01*
X133421156Y-104800500D01*
X133421158Y-104800500D01*
X133578844Y-104800500D01*
X133578845Y-104800499D01*
X133733497Y-104769737D01*
X133846166Y-104723067D01*
X133879172Y-104709397D01*
X133879172Y-104709396D01*
X133879179Y-104709394D01*
X134010289Y-104621789D01*
X134121789Y-104510289D01*
X134209394Y-104379179D01*
X134269737Y-104233497D01*
X134300500Y-104078842D01*
X134300500Y-103921158D01*
X134300500Y-103921155D01*
X134300499Y-103921153D01*
X134280716Y-103821697D01*
X134269737Y-103766503D01*
X134263237Y-103750810D01*
X134209397Y-103620827D01*
X134209390Y-103620814D01*
X134121789Y-103489711D01*
X134121786Y-103489707D01*
X134010292Y-103378213D01*
X134010288Y-103378210D01*
X133879185Y-103290609D01*
X133879172Y-103290602D01*
X133733501Y-103230264D01*
X133733489Y-103230261D01*
X133578845Y-103199500D01*
X133578842Y-103199500D01*
X133421158Y-103199500D01*
X133421155Y-103199500D01*
X133266510Y-103230261D01*
X133266498Y-103230264D01*
X133120827Y-103290602D01*
X133120814Y-103290609D01*
X132989125Y-103378602D01*
X132922447Y-103399480D01*
X132920234Y-103399500D01*
X131050098Y-103399500D01*
X130983059Y-103379815D01*
X130962417Y-103363181D01*
X127661417Y-100062181D01*
X127627932Y-100000858D01*
X127632916Y-99931166D01*
X127674788Y-99875233D01*
X127740252Y-99850816D01*
X127749098Y-99850500D01*
X127896286Y-99850500D01*
X127896287Y-99850500D01*
X128106243Y-99817246D01*
X128308412Y-99751557D01*
X128497816Y-99655051D01*
X128584478Y-99592088D01*
X128669786Y-99530109D01*
X128669788Y-99530106D01*
X128669792Y-99530104D01*
X128820104Y-99379792D01*
X128820106Y-99379788D01*
X128820109Y-99379786D01*
X128945048Y-99207820D01*
X128945047Y-99207820D01*
X128945051Y-99207816D01*
X128949514Y-99199054D01*
X128997488Y-99148259D01*
X129065308Y-99131463D01*
X129131444Y-99153999D01*
X129170486Y-99199056D01*
X129174951Y-99207820D01*
X129299890Y-99379786D01*
X129450213Y-99530109D01*
X129622179Y-99655048D01*
X129622181Y-99655049D01*
X129622184Y-99655051D01*
X129811588Y-99751557D01*
X130013757Y-99817246D01*
X130223713Y-99850500D01*
X130223714Y-99850500D01*
X130436286Y-99850500D01*
X130436287Y-99850500D01*
X130646243Y-99817246D01*
X130848412Y-99751557D01*
X131037816Y-99655051D01*
X131124478Y-99592088D01*
X131209784Y-99530110D01*
X131209784Y-99530109D01*
X131209792Y-99530104D01*
X131323717Y-99416178D01*
X131385036Y-99382696D01*
X131454728Y-99387680D01*
X131510662Y-99429551D01*
X131527577Y-99460528D01*
X131576646Y-99592088D01*
X131576649Y-99592093D01*
X131662809Y-99707187D01*
X131662812Y-99707190D01*
X131777906Y-99793350D01*
X131777913Y-99793354D01*
X131912620Y-99843596D01*
X131912627Y-99843598D01*
X131972155Y-99849999D01*
X131972172Y-99850000D01*
X132620000Y-99850000D01*
X132620000Y-98933012D01*
X132677007Y-98965925D01*
X132804174Y-99000000D01*
X132935826Y-99000000D01*
X133062993Y-98965925D01*
X133120000Y-98933012D01*
X133120000Y-99850000D01*
X133767828Y-99850000D01*
X133767844Y-99849999D01*
X133827372Y-99843598D01*
X133827379Y-99843596D01*
X133962086Y-99793354D01*
X133962093Y-99793350D01*
X134077187Y-99707190D01*
X134077190Y-99707187D01*
X134163350Y-99592093D01*
X134163354Y-99592086D01*
X134213596Y-99457379D01*
X134213598Y-99457372D01*
X134219999Y-99397844D01*
X134220000Y-99397827D01*
X134220000Y-98750000D01*
X133303012Y-98750000D01*
X133335925Y-98692993D01*
X133370000Y-98565826D01*
X133370000Y-98434174D01*
X133335925Y-98307007D01*
X133303012Y-98250000D01*
X134220000Y-98250000D01*
X134220000Y-97602172D01*
X134219999Y-97602155D01*
X134213598Y-97542627D01*
X134213596Y-97542620D01*
X134163354Y-97407913D01*
X134163350Y-97407906D01*
X134077190Y-97292812D01*
X134077187Y-97292809D01*
X133962093Y-97206649D01*
X133962086Y-97206645D01*
X133827379Y-97156403D01*
X133827372Y-97156401D01*
X133767844Y-97150000D01*
X133120000Y-97150000D01*
X133120000Y-98066988D01*
X133062993Y-98034075D01*
X132935826Y-98000000D01*
X132804174Y-98000000D01*
X132677007Y-98034075D01*
X132620000Y-98066988D01*
X132620000Y-97150000D01*
X131972155Y-97150000D01*
X131912627Y-97156401D01*
X131912620Y-97156403D01*
X131777913Y-97206645D01*
X131777906Y-97206649D01*
X131662812Y-97292809D01*
X131662809Y-97292812D01*
X131576649Y-97407906D01*
X131576646Y-97407912D01*
X131527577Y-97539471D01*
X131485705Y-97595404D01*
X131420241Y-97619821D01*
X131351968Y-97604969D01*
X131323714Y-97583818D01*
X131209786Y-97469890D01*
X131037820Y-97344951D01*
X130848414Y-97248444D01*
X130848413Y-97248443D01*
X130848412Y-97248443D01*
X130646243Y-97182754D01*
X130646241Y-97182753D01*
X130646240Y-97182753D01*
X130484957Y-97157208D01*
X130436287Y-97149500D01*
X130223713Y-97149500D01*
X130175042Y-97157208D01*
X130013760Y-97182753D01*
X129811585Y-97248444D01*
X129622179Y-97344951D01*
X129450213Y-97469890D01*
X129299890Y-97620213D01*
X129174949Y-97792182D01*
X129170484Y-97800946D01*
X129122509Y-97851742D01*
X129054688Y-97868536D01*
X128988553Y-97845998D01*
X128949516Y-97800946D01*
X128945050Y-97792182D01*
X128820109Y-97620213D01*
X128669786Y-97469890D01*
X128497820Y-97344951D01*
X128308414Y-97248444D01*
X128308413Y-97248443D01*
X128308412Y-97248443D01*
X128106243Y-97182754D01*
X128106241Y-97182753D01*
X128106240Y-97182753D01*
X127944957Y-97157208D01*
X127896287Y-97149500D01*
X127683713Y-97149500D01*
X127635042Y-97157208D01*
X127473760Y-97182753D01*
X127271585Y-97248444D01*
X127082179Y-97344951D01*
X126910213Y-97469890D01*
X126759890Y-97620213D01*
X126634949Y-97792182D01*
X126630484Y-97800946D01*
X126582509Y-97851742D01*
X126514688Y-97868536D01*
X126448553Y-97845998D01*
X126409516Y-97800946D01*
X126405050Y-97792182D01*
X126280109Y-97620213D01*
X126129786Y-97469890D01*
X125957820Y-97344951D01*
X125768414Y-97248444D01*
X125768413Y-97248443D01*
X125768412Y-97248443D01*
X125566243Y-97182754D01*
X125566241Y-97182753D01*
X125566240Y-97182753D01*
X125404957Y-97157208D01*
X125356287Y-97149500D01*
X125143713Y-97149500D01*
X125115006Y-97154046D01*
X124933757Y-97182753D01*
X124891473Y-97196492D01*
X124821632Y-97198486D01*
X124765476Y-97166241D01*
X121136819Y-93537584D01*
X121103334Y-93476261D01*
X121100500Y-93449903D01*
X121100500Y-91329765D01*
X121120185Y-91262726D01*
X121121398Y-91260874D01*
X121209390Y-91129185D01*
X121209390Y-91129184D01*
X121209394Y-91129179D01*
X121269737Y-90983497D01*
X121300500Y-90828842D01*
X121300500Y-90671158D01*
X121300500Y-90671155D01*
X121300499Y-90671153D01*
X121269738Y-90516510D01*
X121269737Y-90516503D01*
X121251886Y-90473406D01*
X121209397Y-90370827D01*
X121209390Y-90370814D01*
X121121789Y-90239711D01*
X121121786Y-90239707D01*
X121010292Y-90128213D01*
X121010288Y-90128210D01*
X120879185Y-90040609D01*
X120879172Y-90040602D01*
X120733501Y-89980264D01*
X120733489Y-89980261D01*
X120578845Y-89949500D01*
X120578842Y-89949500D01*
X120421158Y-89949500D01*
X120421155Y-89949500D01*
X120266510Y-89980261D01*
X120266498Y-89980264D01*
X120120827Y-90040602D01*
X120120814Y-90040609D01*
X119989711Y-90128210D01*
X119989707Y-90128213D01*
X119878213Y-90239707D01*
X119878210Y-90239711D01*
X119790609Y-90370814D01*
X119790602Y-90370827D01*
X119730264Y-90516498D01*
X119730261Y-90516510D01*
X119699500Y-90671153D01*
X66750500Y-90671153D01*
X66750500Y-88671153D01*
X115199500Y-88671153D01*
X115199500Y-88828846D01*
X115230261Y-88983489D01*
X115230264Y-88983501D01*
X115290602Y-89129172D01*
X115290609Y-89129185D01*
X115378210Y-89260288D01*
X115378213Y-89260292D01*
X115489707Y-89371786D01*
X115489711Y-89371789D01*
X115620814Y-89459390D01*
X115620827Y-89459397D01*
X115766498Y-89519735D01*
X115766503Y-89519737D01*
X115921153Y-89550499D01*
X115921156Y-89550500D01*
X115921158Y-89550500D01*
X116078844Y-89550500D01*
X116078845Y-89550499D01*
X116233497Y-89519737D01*
X116379179Y-89459394D01*
X116436044Y-89421397D01*
X116502721Y-89400520D01*
X116504935Y-89400500D01*
X117995065Y-89400500D01*
X118062104Y-89420185D01*
X118063909Y-89421366D01*
X118120821Y-89459394D01*
X118120823Y-89459395D01*
X118120827Y-89459397D01*
X118266498Y-89519735D01*
X118266503Y-89519737D01*
X118421153Y-89550499D01*
X118421156Y-89550500D01*
X118421158Y-89550500D01*
X118578844Y-89550500D01*
X118578845Y-89550499D01*
X118733497Y-89519737D01*
X118879179Y-89459394D01*
X119010289Y-89371789D01*
X119121789Y-89260289D01*
X119209394Y-89129179D01*
X119269737Y-88983497D01*
X119300500Y-88828842D01*
X119300500Y-88671158D01*
X119300500Y-88671155D01*
X119300499Y-88671153D01*
X119276499Y-88550498D01*
X119269737Y-88516503D01*
X119249129Y-88466750D01*
X119209397Y-88370827D01*
X119209390Y-88370814D01*
X119121789Y-88239711D01*
X119121786Y-88239707D01*
X119010292Y-88128213D01*
X119010288Y-88128210D01*
X118879185Y-88040609D01*
X118879172Y-88040602D01*
X118733501Y-87980264D01*
X118733489Y-87980261D01*
X118578845Y-87949500D01*
X118578842Y-87949500D01*
X118421158Y-87949500D01*
X118421155Y-87949500D01*
X118266510Y-87980261D01*
X118266498Y-87980264D01*
X118120827Y-88040602D01*
X118120820Y-88040606D01*
X118091928Y-88059911D01*
X118063955Y-88078602D01*
X117997279Y-88099480D01*
X117995065Y-88099500D01*
X116504935Y-88099500D01*
X116437896Y-88079815D01*
X116436090Y-88078633D01*
X116379179Y-88040606D01*
X116379172Y-88040602D01*
X116233501Y-87980264D01*
X116233489Y-87980261D01*
X116078845Y-87949500D01*
X116078842Y-87949500D01*
X115921158Y-87949500D01*
X115921155Y-87949500D01*
X115766510Y-87980261D01*
X115766498Y-87980264D01*
X115620827Y-88040602D01*
X115620814Y-88040609D01*
X115489711Y-88128210D01*
X115489707Y-88128213D01*
X115378213Y-88239707D01*
X115378210Y-88239711D01*
X115290609Y-88370814D01*
X115290602Y-88370827D01*
X115230264Y-88516498D01*
X115230261Y-88516510D01*
X115199500Y-88671153D01*
X66750500Y-88671153D01*
X66750500Y-85159778D01*
X93309500Y-85159778D01*
X93309500Y-85380222D01*
X93311589Y-85393412D01*
X93343985Y-85597952D01*
X93412103Y-85807603D01*
X93412104Y-85807606D01*
X93512187Y-86004025D01*
X93641752Y-86182358D01*
X93641756Y-86182363D01*
X93797636Y-86338243D01*
X93797641Y-86338247D01*
X93879866Y-86397986D01*
X93975978Y-86467815D01*
X94104375Y-86533237D01*
X94172393Y-86567895D01*
X94172396Y-86567896D01*
X94277221Y-86601955D01*
X94382049Y-86636015D01*
X94599778Y-86670500D01*
X94599779Y-86670500D01*
X94820221Y-86670500D01*
X94820222Y-86670500D01*
X95037951Y-86636015D01*
X95247606Y-86567895D01*
X95444022Y-86467815D01*
X95622365Y-86338242D01*
X95778242Y-86182365D01*
X95907815Y-86004022D01*
X96007895Y-85807606D01*
X96076015Y-85597951D01*
X96110500Y-85380222D01*
X96110500Y-85159778D01*
X96076015Y-84942049D01*
X96007895Y-84732394D01*
X96007895Y-84732393D01*
X95973237Y-84664375D01*
X95907815Y-84535978D01*
X95891260Y-84513192D01*
X95778247Y-84357641D01*
X95778243Y-84357636D01*
X95727683Y-84307076D01*
X95694198Y-84245753D01*
X95699182Y-84176061D01*
X95741054Y-84120128D01*
X95772031Y-84103213D01*
X95852086Y-84073354D01*
X95852093Y-84073350D01*
X95967187Y-83987190D01*
X95967190Y-83987187D01*
X96053350Y-83872093D01*
X96053354Y-83872086D01*
X96103596Y-83737379D01*
X96103598Y-83737372D01*
X96109999Y-83677844D01*
X96110000Y-83677827D01*
X96110000Y-82980000D01*
X95085278Y-82980000D01*
X95129333Y-82903694D01*
X95160000Y-82789244D01*
X95160000Y-82670756D01*
X95129333Y-82556306D01*
X95085278Y-82480000D01*
X96110000Y-82480000D01*
X96110000Y-81782172D01*
X96109999Y-81782155D01*
X96103598Y-81722627D01*
X96103596Y-81722620D01*
X96054616Y-81591296D01*
X96053354Y-81587913D01*
X96053350Y-81587906D01*
X95967190Y-81472812D01*
X95967187Y-81472809D01*
X95852093Y-81386649D01*
X95852086Y-81386645D01*
X95717379Y-81336403D01*
X95717372Y-81336401D01*
X95657844Y-81330000D01*
X94960000Y-81330000D01*
X94960000Y-82354722D01*
X94883694Y-82310667D01*
X94769244Y-82280000D01*
X94650756Y-82280000D01*
X94536306Y-82310667D01*
X94460000Y-82354722D01*
X94460000Y-81330000D01*
X93762155Y-81330000D01*
X93702627Y-81336401D01*
X93702620Y-81336403D01*
X93567913Y-81386645D01*
X93567906Y-81386649D01*
X93452812Y-81472809D01*
X93452809Y-81472812D01*
X93366649Y-81587906D01*
X93366645Y-81587913D01*
X93316403Y-81722620D01*
X93316401Y-81722627D01*
X93310000Y-81782155D01*
X93310000Y-82480000D01*
X94334722Y-82480000D01*
X94290667Y-82556306D01*
X94260000Y-82670756D01*
X94260000Y-82789244D01*
X94290667Y-82903694D01*
X94334722Y-82980000D01*
X93310000Y-82980000D01*
X93310000Y-83677844D01*
X93316401Y-83737372D01*
X93316403Y-83737379D01*
X93366645Y-83872086D01*
X93366649Y-83872093D01*
X93452809Y-83987187D01*
X93452812Y-83987190D01*
X93567906Y-84073350D01*
X93567913Y-84073354D01*
X93647968Y-84103213D01*
X93703902Y-84145084D01*
X93728319Y-84210549D01*
X93713467Y-84278822D01*
X93692317Y-84307075D01*
X93641756Y-84357636D01*
X93641752Y-84357641D01*
X93512187Y-84535974D01*
X93412104Y-84732393D01*
X93412103Y-84732396D01*
X93343985Y-84942047D01*
X93329540Y-85033249D01*
X93309500Y-85159778D01*
X66750500Y-85159778D01*
X66750500Y-78623471D01*
X82499500Y-78623471D01*
X82499500Y-79016528D01*
X82538026Y-79407702D01*
X82614704Y-79793194D01*
X82614707Y-79793205D01*
X82728810Y-80169354D01*
X82879230Y-80532499D01*
X82879232Y-80532504D01*
X83064511Y-80879137D01*
X83064515Y-80879144D01*
X83064518Y-80879149D01*
X83175322Y-81044979D01*
X83282887Y-81205960D01*
X83282897Y-81205974D01*
X83532254Y-81509817D01*
X83810182Y-81787745D01*
X83810187Y-81787749D01*
X83810188Y-81787750D01*
X84114031Y-82037107D01*
X84440851Y-82255482D01*
X84440860Y-82255487D01*
X84440862Y-82255488D01*
X84787495Y-82440767D01*
X84787497Y-82440767D01*
X84787503Y-82440771D01*
X85150647Y-82591190D01*
X85526785Y-82705290D01*
X85526791Y-82705291D01*
X85526794Y-82705292D01*
X85526805Y-82705295D01*
X85912297Y-82781973D01*
X86303468Y-82820500D01*
X86303471Y-82820500D01*
X86696529Y-82820500D01*
X86696532Y-82820500D01*
X87087703Y-82781973D01*
X87229726Y-82753723D01*
X87473194Y-82705295D01*
X87473205Y-82705292D01*
X87473205Y-82705291D01*
X87473215Y-82705290D01*
X87849353Y-82591190D01*
X88212497Y-82440771D01*
X88559149Y-82255482D01*
X88885969Y-82037107D01*
X89189812Y-81787750D01*
X89218467Y-81759095D01*
X89286393Y-81691170D01*
X89467745Y-81509817D01*
X89467750Y-81509812D01*
X89717107Y-81205969D01*
X89935482Y-80879149D01*
X90120771Y-80532497D01*
X90271190Y-80169353D01*
X90385290Y-79793215D01*
X90385292Y-79793205D01*
X90385295Y-79793194D01*
X90461973Y-79407702D01*
X90500500Y-79016528D01*
X90500500Y-78623471D01*
X90461973Y-78232297D01*
X90385295Y-77846805D01*
X90385292Y-77846794D01*
X90385291Y-77846791D01*
X90385290Y-77846785D01*
X90271190Y-77470647D01*
X90120771Y-77107503D01*
X90032646Y-76942633D01*
X89935488Y-76760862D01*
X89935487Y-76760860D01*
X89935482Y-76760851D01*
X89717107Y-76434031D01*
X89467750Y-76130188D01*
X89467749Y-76130187D01*
X89467745Y-76130182D01*
X89189817Y-75852254D01*
X88885974Y-75602897D01*
X88885973Y-75602896D01*
X88885969Y-75602893D01*
X88559149Y-75384518D01*
X88559144Y-75384515D01*
X88559137Y-75384511D01*
X88212504Y-75199232D01*
X88212499Y-75199230D01*
X87849354Y-75048810D01*
X87473205Y-74934707D01*
X87473194Y-74934704D01*
X87087702Y-74858026D01*
X86793089Y-74829010D01*
X86696532Y-74819500D01*
X86303468Y-74819500D01*
X86214251Y-74828287D01*
X85912297Y-74858026D01*
X85526805Y-74934704D01*
X85526794Y-74934707D01*
X85150645Y-75048810D01*
X84787500Y-75199230D01*
X84787495Y-75199232D01*
X84440862Y-75384511D01*
X84440844Y-75384522D01*
X84114039Y-75602887D01*
X84114025Y-75602897D01*
X83810182Y-75852254D01*
X83532254Y-76130182D01*
X83282897Y-76434025D01*
X83282887Y-76434039D01*
X83064522Y-76760844D01*
X83064511Y-76760862D01*
X82879232Y-77107495D01*
X82879230Y-77107500D01*
X82728810Y-77470645D01*
X82614707Y-77846794D01*
X82614704Y-77846805D01*
X82538026Y-78232297D01*
X82499500Y-78623471D01*
X66750500Y-78623471D01*
X66750500Y-78026442D01*
X66770185Y-77959403D01*
X66786819Y-77938761D01*
X82438761Y-62286819D01*
X82500084Y-62253334D01*
X82526442Y-62250500D01*
X116473557Y-62250500D01*
X116540596Y-62270185D01*
X116561238Y-62286819D01*
X130293333Y-76018915D01*
X130293339Y-76018920D01*
X130384363Y-76088765D01*
X130475388Y-76158611D01*
X130615074Y-76239258D01*
X130674113Y-76273345D01*
X130798300Y-76324784D01*
X130886113Y-76361158D01*
X130924781Y-76371519D01*
X131107761Y-76420549D01*
X131311553Y-76447377D01*
X131311555Y-76447378D01*
X131311556Y-76447378D01*
X131318151Y-76448246D01*
X131335266Y-76450500D01*
X131335267Y-76450500D01*
X131564734Y-76450500D01*
X155407993Y-76450500D01*
X155446997Y-76456794D01*
X155547203Y-76489999D01*
X155649991Y-76500500D01*
X156023557Y-76500499D01*
X156090596Y-76520183D01*
X156111238Y-76536818D01*
X157713181Y-78138761D01*
X157746666Y-78200084D01*
X157749500Y-78226442D01*
X157749500Y-79953825D01*
X157729815Y-80020864D01*
X157677011Y-80066619D01*
X157607853Y-80076563D01*
X157563503Y-80061214D01*
X157547833Y-80052167D01*
X157547819Y-80052160D01*
X157329836Y-79961870D01*
X157329838Y-79961870D01*
X157101914Y-79900799D01*
X156867985Y-79870000D01*
X156632014Y-79870000D01*
X156398085Y-79900799D01*
X156170162Y-79961870D01*
X155952180Y-80052160D01*
X155952171Y-80052165D01*
X155747828Y-80170144D01*
X155747818Y-80170150D01*
X155666275Y-80232720D01*
X155666275Y-80232721D01*
X156502512Y-81068958D01*
X156442110Y-81093978D01*
X156335649Y-81165112D01*
X156245112Y-81255649D01*
X156173978Y-81362110D01*
X156148958Y-81422511D01*
X155312721Y-80586275D01*
X155312720Y-80586275D01*
X155250150Y-80667818D01*
X155250144Y-80667828D01*
X155132165Y-80872171D01*
X155132160Y-80872180D01*
X155041870Y-81090162D01*
X154980799Y-81318085D01*
X154950000Y-81552014D01*
X154950000Y-81787985D01*
X154980799Y-82021914D01*
X155041870Y-82249837D01*
X155132160Y-82467819D01*
X155132165Y-82467828D01*
X155250144Y-82672171D01*
X155250145Y-82672172D01*
X155312721Y-82753723D01*
X156148958Y-81917487D01*
X156173978Y-81977890D01*
X156245112Y-82084351D01*
X156335649Y-82174888D01*
X156442110Y-82246022D01*
X156502510Y-82271041D01*
X155666275Y-83107277D01*
X155747827Y-83169854D01*
X155747828Y-83169855D01*
X155952171Y-83287834D01*
X155952180Y-83287839D01*
X156170163Y-83378129D01*
X156170161Y-83378129D01*
X156398085Y-83439200D01*
X156632014Y-83469999D01*
X156632029Y-83470000D01*
X156867971Y-83470000D01*
X156867985Y-83469999D01*
X157101914Y-83439200D01*
X157329837Y-83378129D01*
X157547819Y-83287839D01*
X157547832Y-83287832D01*
X157563498Y-83278788D01*
X157631398Y-83262314D01*
X157697426Y-83285166D01*
X157740617Y-83340086D01*
X157749500Y-83386174D01*
X157749500Y-85033249D01*
X157729815Y-85100288D01*
X157677011Y-85146043D01*
X157607853Y-85155987D01*
X157563503Y-85140638D01*
X157548050Y-85131716D01*
X157548042Y-85131713D01*
X157329993Y-85041394D01*
X157102010Y-84980306D01*
X156868020Y-84949501D01*
X156868017Y-84949500D01*
X156868011Y-84949500D01*
X156631989Y-84949500D01*
X156631983Y-84949500D01*
X156631979Y-84949501D01*
X156397989Y-84980306D01*
X156170006Y-85041394D01*
X155951954Y-85131714D01*
X155951943Y-85131719D01*
X155760909Y-85242014D01*
X155750502Y-85248023D01*
X155747545Y-85249730D01*
X155560302Y-85393406D01*
X155560295Y-85393412D01*
X155393412Y-85560295D01*
X155393406Y-85560302D01*
X155249730Y-85747545D01*
X155131719Y-85951943D01*
X155131714Y-85951954D01*
X155041394Y-86170006D01*
X154980306Y-86397989D01*
X154949501Y-86631979D01*
X154949500Y-86631995D01*
X154949500Y-86868004D01*
X154949501Y-86868020D01*
X154980306Y-87102010D01*
X155041394Y-87329993D01*
X155131714Y-87548045D01*
X155131719Y-87548056D01*
X155202677Y-87670957D01*
X155249727Y-87752450D01*
X155249729Y-87752453D01*
X155249730Y-87752454D01*
X155393406Y-87939697D01*
X155393412Y-87939704D01*
X155560295Y-88106587D01*
X155560301Y-88106592D01*
X155747550Y-88250273D01*
X155878918Y-88326118D01*
X155951943Y-88368280D01*
X155951948Y-88368282D01*
X155951951Y-88368284D01*
X156170007Y-88458606D01*
X156397986Y-88519693D01*
X156631989Y-88550500D01*
X156631996Y-88550500D01*
X156868004Y-88550500D01*
X156868011Y-88550500D01*
X157102014Y-88519693D01*
X157329993Y-88458606D01*
X157548049Y-88368284D01*
X157563497Y-88359364D01*
X157631395Y-88342890D01*
X157697423Y-88365740D01*
X157740616Y-88420659D01*
X157749500Y-88466750D01*
X157749500Y-90113249D01*
X157729815Y-90180288D01*
X157677011Y-90226043D01*
X157607853Y-90235987D01*
X157563503Y-90220638D01*
X157548050Y-90211716D01*
X157548042Y-90211713D01*
X157329993Y-90121394D01*
X157102010Y-90060306D01*
X156868020Y-90029501D01*
X156868017Y-90029500D01*
X156868011Y-90029500D01*
X156631989Y-90029500D01*
X156631983Y-90029500D01*
X156631979Y-90029501D01*
X156397989Y-90060306D01*
X156170006Y-90121394D01*
X155951954Y-90211714D01*
X155951943Y-90211719D01*
X155760909Y-90322014D01*
X155750502Y-90328023D01*
X155747545Y-90329730D01*
X155560302Y-90473406D01*
X155560295Y-90473412D01*
X155393412Y-90640295D01*
X155393406Y-90640302D01*
X155249730Y-90827545D01*
X155131719Y-91031943D01*
X155131714Y-91031954D01*
X155041394Y-91250006D01*
X154980306Y-91477989D01*
X154949501Y-91711979D01*
X154949500Y-91711995D01*
X154949500Y-91948004D01*
X154949501Y-91948020D01*
X154980306Y-92182010D01*
X155041394Y-92409993D01*
X155131714Y-92628045D01*
X155131719Y-92628056D01*
X155202677Y-92750957D01*
X155249727Y-92832450D01*
X155249729Y-92832453D01*
X155249730Y-92832454D01*
X155393406Y-93019697D01*
X155393412Y-93019704D01*
X155560295Y-93186587D01*
X155560301Y-93186592D01*
X155747550Y-93330273D01*
X155878918Y-93406118D01*
X155951943Y-93448280D01*
X155951948Y-93448282D01*
X155951951Y-93448284D01*
X156170007Y-93538606D01*
X156397986Y-93599693D01*
X156631989Y-93630500D01*
X156631996Y-93630500D01*
X156868004Y-93630500D01*
X156868011Y-93630500D01*
X157102014Y-93599693D01*
X157314407Y-93542782D01*
X157384255Y-93544445D01*
X157442118Y-93583607D01*
X157469622Y-93647836D01*
X157458036Y-93716738D01*
X157434180Y-93750238D01*
X156111236Y-95073181D01*
X156049913Y-95106666D01*
X156023555Y-95109500D01*
X155649998Y-95109500D01*
X155649980Y-95109501D01*
X155547203Y-95120000D01*
X155547200Y-95120001D01*
X155380668Y-95175185D01*
X155380663Y-95175187D01*
X155231342Y-95267289D01*
X155107289Y-95391342D01*
X155015187Y-95540663D01*
X155015185Y-95540668D01*
X155010636Y-95554397D01*
X154960001Y-95707203D01*
X154960001Y-95707204D01*
X154960000Y-95707204D01*
X154949500Y-95809983D01*
X154949500Y-98010001D01*
X154949501Y-98010018D01*
X154960000Y-98112796D01*
X154960001Y-98112799D01*
X154986575Y-98192993D01*
X155015186Y-98279334D01*
X155107288Y-98428656D01*
X155231344Y-98552712D01*
X155380666Y-98644814D01*
X155547203Y-98699999D01*
X155649991Y-98710500D01*
X156023557Y-98710499D01*
X156090596Y-98730183D01*
X156111238Y-98746818D01*
X157713181Y-100348761D01*
X157746666Y-100410084D01*
X157749500Y-100436442D01*
X157749500Y-102413825D01*
X157729815Y-102480864D01*
X157677011Y-102526619D01*
X157607853Y-102536563D01*
X157563503Y-102521214D01*
X157547833Y-102512167D01*
X157547819Y-102512160D01*
X157329836Y-102421870D01*
X157329838Y-102421870D01*
X157101914Y-102360799D01*
X156867985Y-102330000D01*
X156632014Y-102330000D01*
X156398085Y-102360799D01*
X156170162Y-102421870D01*
X155952180Y-102512160D01*
X155952171Y-102512165D01*
X155747828Y-102630144D01*
X155747818Y-102630150D01*
X155666275Y-102692720D01*
X155666275Y-102692721D01*
X156502512Y-103528958D01*
X156442110Y-103553978D01*
X156335649Y-103625112D01*
X156245112Y-103715649D01*
X156173978Y-103822110D01*
X156148958Y-103882511D01*
X155312721Y-103046275D01*
X155312720Y-103046275D01*
X155250150Y-103127818D01*
X155250144Y-103127828D01*
X155132165Y-103332171D01*
X155132160Y-103332180D01*
X155041870Y-103550162D01*
X154980799Y-103778085D01*
X154950000Y-104012014D01*
X154950000Y-104247985D01*
X154980799Y-104481914D01*
X155041870Y-104709837D01*
X155132160Y-104927819D01*
X155132165Y-104927828D01*
X155250144Y-105132171D01*
X155250145Y-105132172D01*
X155312721Y-105213723D01*
X156148958Y-104377487D01*
X156173978Y-104437890D01*
X156245112Y-104544351D01*
X156335649Y-104634888D01*
X156442110Y-104706022D01*
X156502510Y-104731041D01*
X155666275Y-105567277D01*
X155747827Y-105629854D01*
X155747828Y-105629855D01*
X155952171Y-105747834D01*
X155952180Y-105747839D01*
X156170163Y-105838129D01*
X156170161Y-105838129D01*
X156398085Y-105899200D01*
X156632014Y-105929999D01*
X156632029Y-105930000D01*
X156867971Y-105930000D01*
X156867985Y-105929999D01*
X157101914Y-105899200D01*
X157329837Y-105838129D01*
X157547819Y-105747839D01*
X157547832Y-105747832D01*
X157563498Y-105738788D01*
X157631398Y-105722314D01*
X157697426Y-105745166D01*
X157740617Y-105800086D01*
X157749500Y-105846174D01*
X157749500Y-107493249D01*
X157729815Y-107560288D01*
X157677011Y-107606043D01*
X157607853Y-107615987D01*
X157563503Y-107600638D01*
X157548050Y-107591716D01*
X157548042Y-107591713D01*
X157329993Y-107501394D01*
X157102010Y-107440306D01*
X156868020Y-107409501D01*
X156868017Y-107409500D01*
X156868011Y-107409500D01*
X156631989Y-107409500D01*
X156631983Y-107409500D01*
X156631979Y-107409501D01*
X156397989Y-107440306D01*
X156170006Y-107501394D01*
X155951954Y-107591714D01*
X155951943Y-107591719D01*
X155760909Y-107702014D01*
X155750502Y-107708023D01*
X155747545Y-107709730D01*
X155560302Y-107853406D01*
X155560295Y-107853412D01*
X155393412Y-108020295D01*
X155393406Y-108020302D01*
X155249730Y-108207545D01*
X155131719Y-108411943D01*
X155131714Y-108411954D01*
X155041394Y-108630006D01*
X154980306Y-108857989D01*
X154949501Y-109091979D01*
X154949500Y-109091995D01*
X154949500Y-109328004D01*
X154949501Y-109328020D01*
X154980306Y-109562010D01*
X155041394Y-109789993D01*
X155131714Y-110008045D01*
X155131719Y-110008056D01*
X155196821Y-110120814D01*
X155249727Y-110212450D01*
X155249729Y-110212453D01*
X155249730Y-110212454D01*
X155393406Y-110399697D01*
X155393412Y-110399704D01*
X155560295Y-110566587D01*
X155560302Y-110566593D01*
X155670306Y-110651001D01*
X155747550Y-110710273D01*
X155878918Y-110786118D01*
X155951943Y-110828280D01*
X155951948Y-110828282D01*
X155951951Y-110828284D01*
X156170007Y-110918606D01*
X156397986Y-110979693D01*
X156631989Y-111010500D01*
X156631996Y-111010500D01*
X156868004Y-111010500D01*
X156868011Y-111010500D01*
X157102014Y-110979693D01*
X157329993Y-110918606D01*
X157548049Y-110828284D01*
X157563497Y-110819364D01*
X157631395Y-110802890D01*
X157697423Y-110825740D01*
X157740616Y-110880659D01*
X157749500Y-110926750D01*
X157749500Y-112573249D01*
X157729815Y-112640288D01*
X157677011Y-112686043D01*
X157607853Y-112695987D01*
X157563503Y-112680638D01*
X157548050Y-112671716D01*
X157548042Y-112671713D01*
X157329993Y-112581394D01*
X157102010Y-112520306D01*
X156868020Y-112489501D01*
X156868017Y-112489500D01*
X156868011Y-112489500D01*
X156631989Y-112489500D01*
X156631983Y-112489500D01*
X156631979Y-112489501D01*
X156397989Y-112520306D01*
X156170006Y-112581394D01*
X155951954Y-112671714D01*
X155951943Y-112671719D01*
X155760909Y-112782014D01*
X155750502Y-112788023D01*
X155747545Y-112789730D01*
X155560302Y-112933406D01*
X155560295Y-112933412D01*
X155393412Y-113100295D01*
X155393406Y-113100302D01*
X155249730Y-113287545D01*
X155131719Y-113491943D01*
X155131714Y-113491954D01*
X155041394Y-113710006D01*
X154980306Y-113937989D01*
X154949501Y-114171979D01*
X154949500Y-114171995D01*
X154949500Y-114408004D01*
X154949501Y-114408020D01*
X154980306Y-114642010D01*
X155041394Y-114869993D01*
X155131714Y-115088045D01*
X155131719Y-115088056D01*
X155202677Y-115210957D01*
X155249727Y-115292450D01*
X155249729Y-115292453D01*
X155249730Y-115292454D01*
X155393406Y-115479697D01*
X155393412Y-115479704D01*
X155560295Y-115646587D01*
X155560302Y-115646593D01*
X155670306Y-115731001D01*
X155747550Y-115790273D01*
X155878918Y-115866118D01*
X155951943Y-115908280D01*
X155951948Y-115908282D01*
X155951951Y-115908284D01*
X156170007Y-115998606D01*
X156397986Y-116059693D01*
X156631989Y-116090500D01*
X156631996Y-116090500D01*
X156868004Y-116090500D01*
X156868011Y-116090500D01*
X157102014Y-116059693D01*
X157314407Y-116002782D01*
X157384255Y-116004445D01*
X157442118Y-116043607D01*
X157469622Y-116107836D01*
X157458036Y-116176738D01*
X157434180Y-116210238D01*
X156111236Y-117533181D01*
X156049913Y-117566666D01*
X156023555Y-117569500D01*
X155649998Y-117569500D01*
X155649980Y-117569501D01*
X155547203Y-117580000D01*
X155547200Y-117580001D01*
X155380668Y-117635185D01*
X155380663Y-117635187D01*
X155231342Y-117727289D01*
X155107289Y-117851342D01*
X155015187Y-118000663D01*
X155015186Y-118000666D01*
X154960001Y-118167203D01*
X154960001Y-118167204D01*
X154960000Y-118167204D01*
X154949500Y-118269983D01*
X154949500Y-120470001D01*
X154949501Y-120470018D01*
X154960000Y-120572796D01*
X154960001Y-120572799D01*
X155015185Y-120739331D01*
X155015186Y-120739334D01*
X155107288Y-120888656D01*
X155231344Y-121012712D01*
X155380666Y-121104814D01*
X155547203Y-121159999D01*
X155649991Y-121170500D01*
X156023556Y-121170499D01*
X156090595Y-121190183D01*
X156111237Y-121206818D01*
X157714181Y-122809762D01*
X157747666Y-122871085D01*
X157750500Y-122897443D01*
X157750500Y-124494403D01*
X157730815Y-124561442D01*
X157678011Y-124607197D01*
X157608853Y-124617141D01*
X157564502Y-124601791D01*
X157547833Y-124592168D01*
X157547816Y-124592159D01*
X157329836Y-124501870D01*
X157329838Y-124501870D01*
X157101914Y-124440799D01*
X156867985Y-124410000D01*
X156632014Y-124410000D01*
X156398085Y-124440799D01*
X156170162Y-124501870D01*
X155952180Y-124592160D01*
X155952171Y-124592165D01*
X155747828Y-124710144D01*
X155747818Y-124710150D01*
X155666275Y-124772720D01*
X155666275Y-124772721D01*
X156502512Y-125608958D01*
X156442110Y-125633978D01*
X156335649Y-125705112D01*
X156245112Y-125795649D01*
X156173978Y-125902110D01*
X156148958Y-125962511D01*
X155312721Y-125126275D01*
X155312720Y-125126275D01*
X155250150Y-125207818D01*
X155250144Y-125207828D01*
X155132165Y-125412171D01*
X155132160Y-125412180D01*
X155041870Y-125630162D01*
X154980799Y-125858085D01*
X154950000Y-126092014D01*
X154950000Y-126327985D01*
X154980799Y-126561914D01*
X155041870Y-126789837D01*
X155132160Y-127007819D01*
X155132165Y-127007828D01*
X155250144Y-127212171D01*
X155250145Y-127212172D01*
X155312721Y-127293723D01*
X156148958Y-126457487D01*
X156173978Y-126517890D01*
X156245112Y-126624351D01*
X156335649Y-126714888D01*
X156442110Y-126786022D01*
X156502510Y-126811041D01*
X155666275Y-127647277D01*
X155747827Y-127709854D01*
X155747828Y-127709855D01*
X155952171Y-127827834D01*
X155952180Y-127827839D01*
X156170163Y-127918129D01*
X156170161Y-127918129D01*
X156398085Y-127979200D01*
X156632014Y-128009999D01*
X156632029Y-128010000D01*
X156867971Y-128010000D01*
X156867985Y-128009999D01*
X157101914Y-127979200D01*
X157329837Y-127918129D01*
X157547819Y-127827839D01*
X157547829Y-127827834D01*
X157564496Y-127818211D01*
X157632395Y-127801736D01*
X157698423Y-127824586D01*
X157741616Y-127879505D01*
X157750500Y-127925596D01*
X157750500Y-129573826D01*
X157730815Y-129640865D01*
X157678011Y-129686620D01*
X157608853Y-129696564D01*
X157564504Y-129681215D01*
X157548057Y-129671720D01*
X157548051Y-129671717D01*
X157548049Y-129671716D01*
X157329993Y-129581394D01*
X157102014Y-129520307D01*
X157102013Y-129520306D01*
X157102010Y-129520306D01*
X156868020Y-129489501D01*
X156868017Y-129489500D01*
X156868011Y-129489500D01*
X156631989Y-129489500D01*
X156631983Y-129489500D01*
X156631979Y-129489501D01*
X156397989Y-129520306D01*
X156170006Y-129581394D01*
X155951954Y-129671714D01*
X155951943Y-129671719D01*
X155747545Y-129789730D01*
X155560302Y-129933406D01*
X155560295Y-129933412D01*
X155393412Y-130100295D01*
X155393406Y-130100302D01*
X155249730Y-130287545D01*
X155131719Y-130491943D01*
X155131714Y-130491954D01*
X155041394Y-130710006D01*
X154980306Y-130937989D01*
X154949501Y-131171979D01*
X154949500Y-131171995D01*
X154949500Y-131408004D01*
X154949501Y-131408020D01*
X154980306Y-131642010D01*
X155041394Y-131869993D01*
X155131714Y-132088045D01*
X155131719Y-132088056D01*
X155202677Y-132210957D01*
X155249727Y-132292450D01*
X155249729Y-132292453D01*
X155249730Y-132292454D01*
X155393406Y-132479697D01*
X155393412Y-132479704D01*
X155560295Y-132646587D01*
X155560301Y-132646592D01*
X155747550Y-132790273D01*
X155878918Y-132866118D01*
X155951943Y-132908280D01*
X155951948Y-132908282D01*
X155951951Y-132908284D01*
X156170007Y-132998606D01*
X156397986Y-133059693D01*
X156631989Y-133090500D01*
X156631996Y-133090500D01*
X156868004Y-133090500D01*
X156868011Y-133090500D01*
X157102014Y-133059693D01*
X157329993Y-132998606D01*
X157548049Y-132908284D01*
X157564499Y-132898786D01*
X157632397Y-132882313D01*
X157698425Y-132905164D01*
X157741617Y-132960084D01*
X157750500Y-133006173D01*
X157750500Y-134653826D01*
X157730815Y-134720865D01*
X157678011Y-134766620D01*
X157608853Y-134776564D01*
X157564504Y-134761215D01*
X157548057Y-134751720D01*
X157548051Y-134751717D01*
X157548049Y-134751716D01*
X157329993Y-134661394D01*
X157102014Y-134600307D01*
X157102013Y-134600306D01*
X157102010Y-134600306D01*
X156868020Y-134569501D01*
X156868017Y-134569500D01*
X156868011Y-134569500D01*
X156631989Y-134569500D01*
X156631983Y-134569500D01*
X156631979Y-134569501D01*
X156397989Y-134600306D01*
X156170006Y-134661394D01*
X155951954Y-134751714D01*
X155951943Y-134751719D01*
X155747545Y-134869730D01*
X155560302Y-135013406D01*
X155560295Y-135013412D01*
X155393412Y-135180295D01*
X155393406Y-135180302D01*
X155249730Y-135367545D01*
X155131719Y-135571943D01*
X155131714Y-135571954D01*
X155041394Y-135790006D01*
X154980306Y-136017989D01*
X154949501Y-136251979D01*
X154949500Y-136251995D01*
X154949500Y-136488004D01*
X154949501Y-136488020D01*
X154980306Y-136722010D01*
X155041394Y-136949993D01*
X155131714Y-137168045D01*
X155131719Y-137168056D01*
X155194619Y-137277000D01*
X155249727Y-137372450D01*
X155249729Y-137372453D01*
X155249730Y-137372454D01*
X155393406Y-137559697D01*
X155393412Y-137559704D01*
X155560295Y-137726587D01*
X155560302Y-137726593D01*
X155652319Y-137797200D01*
X155747550Y-137870273D01*
X155878918Y-137946118D01*
X155951943Y-137988280D01*
X155951948Y-137988282D01*
X155951951Y-137988284D01*
X156170007Y-138078606D01*
X156397986Y-138139693D01*
X156631989Y-138170500D01*
X156631996Y-138170500D01*
X156868004Y-138170500D01*
X156868011Y-138170500D01*
X157102014Y-138139693D01*
X157314407Y-138082782D01*
X157384255Y-138084445D01*
X157442118Y-138123607D01*
X157469622Y-138187836D01*
X157458036Y-138256738D01*
X157434180Y-138290238D01*
X156111236Y-139613181D01*
X156049913Y-139646666D01*
X156023555Y-139649500D01*
X155649998Y-139649500D01*
X155649980Y-139649501D01*
X155547203Y-139660000D01*
X155547200Y-139660001D01*
X155380668Y-139715185D01*
X155380663Y-139715187D01*
X155231342Y-139807289D01*
X155107289Y-139931342D01*
X155015187Y-140080663D01*
X155015185Y-140080668D01*
X155008776Y-140100009D01*
X154960001Y-140247203D01*
X154960001Y-140247204D01*
X154960000Y-140247204D01*
X154949500Y-140349983D01*
X154949500Y-142550001D01*
X154949501Y-142550018D01*
X154960000Y-142652796D01*
X154960001Y-142652799D01*
X155015185Y-142819331D01*
X155015186Y-142819334D01*
X155107288Y-142968656D01*
X155231344Y-143092712D01*
X155380666Y-143184814D01*
X155547203Y-143239999D01*
X155649991Y-143250500D01*
X157850008Y-143250499D01*
X157952797Y-143239999D01*
X158119334Y-143184814D01*
X158268656Y-143092712D01*
X158392712Y-142968656D01*
X158484814Y-142819334D01*
X158539999Y-142652797D01*
X158550500Y-142550009D01*
X158550499Y-142176441D01*
X158570183Y-142109403D01*
X158586813Y-142088766D01*
X160819920Y-139855661D01*
X160927637Y-139715281D01*
X160927638Y-139715279D01*
X160927640Y-139715278D01*
X160941340Y-139697422D01*
X160959611Y-139673612D01*
X161072314Y-139478402D01*
X161074036Y-139475634D01*
X161162155Y-139262893D01*
X161162154Y-139262893D01*
X161162158Y-139262886D01*
X161221549Y-139041239D01*
X161251500Y-138813733D01*
X161251500Y-138584266D01*
X161251500Y-122006266D01*
X161239441Y-121914669D01*
X161221549Y-121778761D01*
X161162158Y-121557114D01*
X161105844Y-121421158D01*
X161074349Y-121345121D01*
X161074344Y-121345112D01*
X161028959Y-121266503D01*
X160959611Y-121146388D01*
X160889765Y-121055363D01*
X160857036Y-121012710D01*
X160819921Y-120964340D01*
X160819915Y-120964333D01*
X159313261Y-119457680D01*
X159279776Y-119396357D01*
X159284760Y-119326665D01*
X159313261Y-119282318D01*
X160818919Y-117776661D01*
X160870959Y-117708842D01*
X160958611Y-117594612D01*
X161073344Y-117395888D01*
X161161158Y-117183887D01*
X161220548Y-116962238D01*
X161250500Y-116734734D01*
X161250500Y-99545266D01*
X161220548Y-99317762D01*
X161198342Y-99234889D01*
X161161158Y-99096113D01*
X161073344Y-98884112D01*
X161073342Y-98884109D01*
X161073340Y-98884104D01*
X160985398Y-98731785D01*
X160958611Y-98685388D01*
X160818919Y-98503339D01*
X160656661Y-98341081D01*
X159313261Y-96997681D01*
X159279776Y-96936358D01*
X159284760Y-96866666D01*
X159313261Y-96822319D01*
X160050325Y-96085255D01*
X160818919Y-95316661D01*
X160870959Y-95248842D01*
X160958611Y-95134612D01*
X161073344Y-94935888D01*
X161161158Y-94723887D01*
X161196130Y-94593369D01*
X161220548Y-94502239D01*
X161237626Y-94372517D01*
X161250500Y-94274734D01*
X161250500Y-77335266D01*
X161220548Y-77107762D01*
X161168122Y-76912104D01*
X161166958Y-76907760D01*
X161166958Y-76907759D01*
X161161158Y-76886113D01*
X161109277Y-76760862D01*
X161073344Y-76674112D01*
X161073342Y-76674109D01*
X161073340Y-76674104D01*
X160973109Y-76500500D01*
X160973108Y-76500498D01*
X160958611Y-76475388D01*
X160916531Y-76420549D01*
X160818919Y-76293339D01*
X160656661Y-76131081D01*
X158586818Y-74061237D01*
X158553333Y-73999914D01*
X158550499Y-73973556D01*
X158550499Y-73599998D01*
X158550498Y-73599981D01*
X158539999Y-73497203D01*
X158539998Y-73497200D01*
X158484814Y-73330666D01*
X158392712Y-73181344D01*
X158268656Y-73057288D01*
X158119334Y-72965186D01*
X157952797Y-72910001D01*
X157952795Y-72910000D01*
X157850010Y-72899500D01*
X155649998Y-72899500D01*
X155649981Y-72899501D01*
X155547203Y-72910000D01*
X155547200Y-72910001D01*
X155446997Y-72943206D01*
X155407993Y-72949500D01*
X132226443Y-72949500D01*
X132159404Y-72929815D01*
X132138762Y-72913181D01*
X128811192Y-69585611D01*
X128727576Y-69501995D01*
X154949500Y-69501995D01*
X154949500Y-69738004D01*
X154949501Y-69738020D01*
X154980306Y-69972010D01*
X155041394Y-70199993D01*
X155131714Y-70418045D01*
X155131719Y-70418056D01*
X155202677Y-70540957D01*
X155249727Y-70622450D01*
X155249729Y-70622453D01*
X155249730Y-70622454D01*
X155393406Y-70809697D01*
X155393412Y-70809704D01*
X155560295Y-70976587D01*
X155560301Y-70976592D01*
X155747550Y-71120273D01*
X155878918Y-71196118D01*
X155951943Y-71238280D01*
X155951948Y-71238282D01*
X155951951Y-71238284D01*
X156170007Y-71328606D01*
X156397986Y-71389693D01*
X156631989Y-71420500D01*
X156631996Y-71420500D01*
X156868004Y-71420500D01*
X156868011Y-71420500D01*
X157102014Y-71389693D01*
X157329993Y-71328606D01*
X157548049Y-71238284D01*
X157752450Y-71120273D01*
X157939699Y-70976592D01*
X158106592Y-70809699D01*
X158250273Y-70622450D01*
X158368284Y-70418049D01*
X158458606Y-70199993D01*
X158519693Y-69972014D01*
X158550500Y-69738011D01*
X158550500Y-69501989D01*
X158519693Y-69267986D01*
X158458606Y-69040007D01*
X158368284Y-68821951D01*
X158368282Y-68821948D01*
X158368280Y-68821943D01*
X158326118Y-68748918D01*
X158250273Y-68617550D01*
X158106592Y-68430301D01*
X158106587Y-68430295D01*
X157939704Y-68263412D01*
X157939697Y-68263406D01*
X157752454Y-68119730D01*
X157752453Y-68119729D01*
X157752450Y-68119727D01*
X157670957Y-68072677D01*
X157548056Y-68001719D01*
X157548045Y-68001714D01*
X157329993Y-67911394D01*
X157102010Y-67850306D01*
X156868020Y-67819501D01*
X156868017Y-67819500D01*
X156868011Y-67819500D01*
X156631989Y-67819500D01*
X156631983Y-67819500D01*
X156631979Y-67819501D01*
X156397989Y-67850306D01*
X156170006Y-67911394D01*
X155951954Y-68001714D01*
X155951943Y-68001719D01*
X155747545Y-68119730D01*
X155560302Y-68263406D01*
X155560295Y-68263412D01*
X155393412Y-68430295D01*
X155393406Y-68430302D01*
X155249730Y-68617545D01*
X155131719Y-68821943D01*
X155131714Y-68821954D01*
X155041394Y-69040006D01*
X154980306Y-69267989D01*
X154949501Y-69501979D01*
X154949500Y-69501995D01*
X128727576Y-69501995D01*
X123731193Y-64505611D01*
X123647577Y-64421995D01*
X154949500Y-64421995D01*
X154949500Y-64658004D01*
X154949501Y-64658020D01*
X154980306Y-64892010D01*
X155041394Y-65119993D01*
X155131714Y-65338045D01*
X155131719Y-65338056D01*
X155202677Y-65460957D01*
X155249727Y-65542450D01*
X155249729Y-65542453D01*
X155249730Y-65542454D01*
X155393406Y-65729697D01*
X155393412Y-65729704D01*
X155560295Y-65896587D01*
X155560301Y-65896592D01*
X155747550Y-66040273D01*
X155878918Y-66116118D01*
X155951943Y-66158280D01*
X155951948Y-66158282D01*
X155951951Y-66158284D01*
X156170007Y-66248606D01*
X156397986Y-66309693D01*
X156631989Y-66340500D01*
X156631996Y-66340500D01*
X156868004Y-66340500D01*
X156868011Y-66340500D01*
X157102014Y-66309693D01*
X157329993Y-66248606D01*
X157548049Y-66158284D01*
X157752450Y-66040273D01*
X157939699Y-65896592D01*
X158106592Y-65729699D01*
X158250273Y-65542450D01*
X158368284Y-65338049D01*
X158458606Y-65119993D01*
X158519693Y-64892014D01*
X158550500Y-64658011D01*
X158550500Y-64421989D01*
X158519693Y-64187986D01*
X158458606Y-63960007D01*
X158368284Y-63741951D01*
X158368282Y-63741948D01*
X158368280Y-63741943D01*
X158326118Y-63668918D01*
X158250273Y-63537550D01*
X158106592Y-63350301D01*
X158106587Y-63350295D01*
X157939704Y-63183412D01*
X157939697Y-63183406D01*
X157752454Y-63039730D01*
X157752453Y-63039729D01*
X157752450Y-63039727D01*
X157670957Y-62992677D01*
X157548056Y-62921719D01*
X157548045Y-62921714D01*
X157329993Y-62831394D01*
X157102010Y-62770306D01*
X156868020Y-62739501D01*
X156868017Y-62739500D01*
X156868011Y-62739500D01*
X156631989Y-62739500D01*
X156631983Y-62739500D01*
X156631979Y-62739501D01*
X156397989Y-62770306D01*
X156170006Y-62831394D01*
X155951954Y-62921714D01*
X155951943Y-62921719D01*
X155747545Y-63039730D01*
X155560302Y-63183406D01*
X155560295Y-63183412D01*
X155393412Y-63350295D01*
X155393406Y-63350302D01*
X155249730Y-63537545D01*
X155131719Y-63741943D01*
X155131714Y-63741954D01*
X155041394Y-63960006D01*
X154980306Y-64187989D01*
X154949501Y-64421979D01*
X154949500Y-64421995D01*
X123647577Y-64421995D01*
X118567596Y-59342014D01*
X154950000Y-59342014D01*
X154950000Y-59577985D01*
X154980799Y-59811914D01*
X155041870Y-60039837D01*
X155132160Y-60257819D01*
X155132165Y-60257828D01*
X155250144Y-60462171D01*
X155250145Y-60462172D01*
X155312721Y-60543723D01*
X156148958Y-59707487D01*
X156173978Y-59767890D01*
X156245112Y-59874351D01*
X156335649Y-59964888D01*
X156442110Y-60036022D01*
X156502511Y-60061041D01*
X155666275Y-60897277D01*
X155747827Y-60959854D01*
X155747828Y-60959855D01*
X155952171Y-61077834D01*
X155952180Y-61077839D01*
X156170163Y-61168129D01*
X156170161Y-61168129D01*
X156398085Y-61229200D01*
X156632014Y-61259999D01*
X156632029Y-61260000D01*
X156867971Y-61260000D01*
X156867985Y-61259999D01*
X157101914Y-61229200D01*
X157329837Y-61168129D01*
X157547819Y-61077839D01*
X157547828Y-61077834D01*
X157752181Y-60959850D01*
X157833723Y-60897279D01*
X157833723Y-60897276D01*
X156997487Y-60061041D01*
X157057890Y-60036022D01*
X157164351Y-59964888D01*
X157254888Y-59874351D01*
X157326022Y-59767890D01*
X157351041Y-59707488D01*
X158187276Y-60543723D01*
X158187279Y-60543723D01*
X158249850Y-60462181D01*
X158367834Y-60257828D01*
X158367839Y-60257819D01*
X158458129Y-60039837D01*
X158519200Y-59811914D01*
X158549999Y-59577985D01*
X158550000Y-59577971D01*
X158550000Y-59342028D01*
X158549999Y-59342014D01*
X158519200Y-59108085D01*
X158458129Y-58880162D01*
X158367839Y-58662180D01*
X158367834Y-58662171D01*
X158249855Y-58457828D01*
X158249854Y-58457827D01*
X158187277Y-58376275D01*
X157351041Y-59212511D01*
X157326022Y-59152110D01*
X157254888Y-59045649D01*
X157164351Y-58955112D01*
X157057890Y-58883978D01*
X156997488Y-58858958D01*
X157833723Y-58022721D01*
X157752172Y-57960145D01*
X157752171Y-57960144D01*
X157547828Y-57842165D01*
X157547819Y-57842160D01*
X157329836Y-57751870D01*
X157329838Y-57751870D01*
X157101914Y-57690799D01*
X156867985Y-57660000D01*
X156632014Y-57660000D01*
X156398085Y-57690799D01*
X156170162Y-57751870D01*
X155952180Y-57842160D01*
X155952171Y-57842165D01*
X155747828Y-57960144D01*
X155747818Y-57960150D01*
X155666275Y-58022720D01*
X155666275Y-58022721D01*
X156502512Y-58858958D01*
X156442110Y-58883978D01*
X156335649Y-58955112D01*
X156245112Y-59045649D01*
X156173978Y-59152110D01*
X156148958Y-59212511D01*
X155312721Y-58376275D01*
X155312720Y-58376275D01*
X155250150Y-58457818D01*
X155250144Y-58457828D01*
X155132165Y-58662171D01*
X155132160Y-58662180D01*
X155041870Y-58880162D01*
X154980799Y-59108085D01*
X154950000Y-59342014D01*
X118567596Y-59342014D01*
X118406668Y-59181086D01*
X118406662Y-59181081D01*
X118315636Y-59111235D01*
X118315635Y-59111234D01*
X118224622Y-59041396D01*
X118224616Y-59041392D01*
X118224612Y-59041389D01*
X118213958Y-59035238D01*
X118025891Y-58926657D01*
X118025876Y-58926650D01*
X117813887Y-58838842D01*
X117706246Y-58810000D01*
X117592239Y-58779452D01*
X117592233Y-58779451D01*
X117592232Y-58779451D01*
X117582362Y-58778151D01*
X117565771Y-58775967D01*
X117565770Y-58775966D01*
X117364744Y-58749501D01*
X117364739Y-58749500D01*
X117364734Y-58749500D01*
X81635266Y-58749500D01*
X81635260Y-58749500D01*
X81635255Y-58749501D01*
X81434228Y-58775966D01*
X81434228Y-58775967D01*
X81430215Y-58776495D01*
X81407763Y-58779451D01*
X81186112Y-58838842D01*
X80974123Y-58926650D01*
X80974108Y-58926657D01*
X80775392Y-59041385D01*
X80593339Y-59181080D01*
X80593339Y-59181081D01*
X63681084Y-76093333D01*
X63681078Y-76093340D01*
X63630995Y-76158611D01*
X63611235Y-76184363D01*
X63579670Y-76225499D01*
X63541385Y-76275392D01*
X63426657Y-76474108D01*
X63426650Y-76474123D01*
X63338842Y-76686112D01*
X63294275Y-76852443D01*
X63257910Y-76912104D01*
X63195063Y-76942633D01*
X63125688Y-76934338D01*
X63071810Y-76889853D01*
X63050535Y-76823301D01*
X63050500Y-76820350D01*
X63050500Y-56424500D01*
X63070185Y-56357461D01*
X63122989Y-56311706D01*
X63174500Y-56300500D01*
X162075500Y-56300500D01*
X162142539Y-56320185D01*
G37*
G04 #@! TD.AperFunction*
G04 #@! TD*
M02*
